<svg id="svg" version="1.1" xmlns="http://www.w3.org/2000/svg" xmlns:xlink="http://www.w3.org/1999/xlink" width="400" height="400" viewBox="0, 0, 400,400"><g id="svgg"><path id="path0" d="M0.000 200.000 L 0.000 400.000 93.300 399.952 C 144.615 399.926,185.880 399.758,185.000 399.580 C 184.120 399.401,180.610 398.958,177.200 398.595 C 149.721 395.668,118.546 384.883,96.200 370.574 C 94.660 369.588,93.130 368.660,92.800 368.511 C 92.470 368.362,92.020 368.088,91.800 367.901 C 91.580 367.714,89.490 366.265,87.155 364.681 C 75.644 356.869,60.313 343.387,51.399 333.236 C 45.586 326.617,39.536 318.813,34.936 312.000 C 31.972 307.609,28.400 302.007,28.400 301.748 C 28.400 301.625,28.052 301.035,27.628 300.439 C 25.142 296.948,15.507 276.664,13.746 271.214 C 13.424 270.216,12.990 269.040,12.783 268.600 C 11.739 266.383,7.946 253.867,7.168 250.073 C 6.973 249.124,6.725 248.202,6.616 248.026 C 6.507 247.850,6.130 246.197,5.778 244.353 C 5.427 242.509,4.987 240.640,4.800 240.200 C 4.614 239.760,4.372 238.680,4.262 237.800 C 4.153 236.920,3.705 234.040,3.267 231.400 C 0.885 217.038,0.193 199.975,1.402 185.400 C 2.660 170.243,4.601 159.381,8.659 144.800 C 9.304 142.483,12.182 133.761,13.557 129.955 C 16.520 121.755,23.863 106.534,28.393 99.200 C 28.597 98.870,29.302 97.675,29.960 96.545 C 31.059 94.657,36.451 86.524,38.807 83.200 C 45.296 74.048,57.000 61.002,66.220 52.644 C 69.931 49.279,80.201 40.909,83.000 38.968 C 83.660 38.510,85.190 37.439,86.400 36.588 C 90.565 33.660,93.108 32.029,99.200 28.382 C 103.364 25.889,105.629 24.639,109.000 22.975 C 111.200 21.889,113.090 20.902,113.200 20.783 C 113.601 20.348,126.400 14.897,130.900 13.245 C 132.165 12.780,134.145 12.053,135.300 11.628 C 156.837 3.711,192.372 -1.023,213.732 1.178 C 215.749 1.386,219.560 1.765,222.200 2.021 C 229.879 2.764,242.490 5.057,250.600 7.185 C 256.756 8.800,266.519 11.842,268.600 12.794 C 269.040 12.995,270.210 13.425,271.200 13.749 C 277.761 15.898,298.332 25.689,300.831 27.853 C 301.179 28.154,301.569 28.400,301.698 28.400 C 302.721 28.400,316.246 37.634,323.525 43.302 C 327.561 46.445,329.492 48.050,331.587 50.000 C 331.941 50.330,332.944 51.209,333.815 51.953 C 340.914 58.013,360.400 79.369,360.400 81.089 C 360.400 81.236,360.830 81.816,361.356 82.378 C 362.170 83.247,370.000 94.655,370.000 94.971 C 370.000 95.031,370.964 96.682,372.142 98.640 C 375.292 103.877,379.518 111.900,381.708 116.800 C 382.248 118.010,383.098 119.900,383.596 121.000 C 388.595 132.043,393.825 148.993,396.555 163.000 C 397.587 168.292,397.997 171.073,398.797 178.200 C 399.044 180.400,399.392 183.100,399.570 184.200 C 399.749 185.300,399.919 144.305,399.947 93.100 L 400.000 0.000 200.000 0.000 L 0.000 0.000 0.000 200.000 M250.000 82.233 C 246.629 82.412,239.949 83.160,237.400 83.644 C 232.094 84.652,230.717 84.949,227.000 85.883 C 198.849 92.955,174.321 112.669,160.861 139.038 C 159.728 141.259,158.800 143.196,158.800 143.343 C 158.800 143.489,158.419 144.462,157.953 145.504 C 157.488 146.547,156.861 147.961,156.560 148.647 C 155.442 151.195,152.934 159.654,151.415 166.000 C 148.247 179.233,148.534 201.770,152.053 216.179 C 157.341 237.826,170.519 258.718,187.200 271.902 C 189.070 273.380,190.780 274.733,191.000 274.910 C 200.761 282.733,215.803 290.029,234.400 295.960 C 235.830 296.416,239.520 298.101,242.600 299.704 C 250.694 303.915,263.025 309.938,268.400 312.304 C 269.170 312.643,270.891 313.426,272.225 314.045 C 276.114 315.848,287.679 320.642,294.400 323.238 C 297.810 324.554,301.050 325.826,301.600 326.064 C 305.130 327.591,318.223 332.009,329.200 335.379 C 341.766 339.236,341.644 339.200,342.246 339.200 C 344.553 339.200,335.029 348.399,322.000 358.755 C 311.854 366.819,291.583 378.807,280.400 383.355 C 266.646 388.949,257.472 392.047,248.800 394.027 C 248.030 394.203,246.680 394.544,245.800 394.784 C 244.920 395.024,243.390 395.378,242.400 395.570 C 231.881 397.609,221.442 399.174,217.923 399.240 C 216.756 399.262,215.350 399.424,214.800 399.600 C 214.250 399.776,255.695 399.938,306.900 399.960 L 400.000 400.000 399.972 307.300 C 399.956 255.226,399.793 214.951,399.600 215.400 C 399.411 215.840,399.244 217.119,399.228 218.242 C 399.186 221.268,396.913 236.993,396.025 240.400 C 395.824 241.170,395.447 242.880,395.188 244.200 C 394.929 245.520,394.577 246.960,394.407 247.400 C 394.237 247.840,393.879 249.190,393.611 250.400 C 390.359 265.101,381.240 287.085,372.208 302.000 C 370.277 305.190,368.323 308.430,367.866 309.200 C 367.409 309.970,366.933 310.690,366.808 310.800 C 366.682 310.910,365.684 312.325,364.590 313.944 C 361.175 318.997,360.159 320.007,358.890 319.614 C 358.290 319.428,356.450 318.981,354.800 318.620 C 349.440 317.449,339.821 315.105,339.000 314.772 C 338.560 314.593,336.670 314.073,334.800 313.616 C 332.930 313.159,330.500 312.536,329.400 312.231 C 321.973 310.173,319.713 309.536,315.800 308.400 C 313.380 307.697,311.040 306.970,310.600 306.784 C 310.160 306.598,308.180 305.969,306.200 305.386 C 299.558 303.429,282.210 297.546,281.240 296.921 L 280.279 296.302 282.640 295.164 C 283.938 294.538,287.160 292.995,289.800 291.735 C 298.705 287.485,308.215 281.692,315.740 275.934 C 328.292 266.330,339.270 254.006,346.486 241.419 C 348.299 238.258,353.200 227.945,353.200 227.293 C 353.200 226.890,353.361 226.389,353.558 226.180 C 353.952 225.761,356.924 216.847,357.618 214.000 C 361.842 196.677,361.718 176.550,357.284 159.536 C 349.668 130.313,330.455 105.636,305.400 92.895 C 298.048 89.157,289.256 86.078,281.800 84.631 C 278.644 84.019,274.908 83.436,270.200 82.823 C 266.752 82.374,254.242 82.009,250.000 82.233 M47.868 89.065 C 47.368 89.566,47.570 95.878,48.100 96.302 C 48.375 96.522,51.300 96.798,54.600 96.915 C 64.486 97.265,70.142 98.548,73.097 101.111 C 73.571 101.521,74.774 102.373,75.772 103.004 C 77.258 103.943,77.704 104.516,78.238 106.175 C 79.264 109.359,78.390 109.200,94.844 109.200 C 111.658 109.200,110.490 109.387,111.982 106.450 C 113.703 103.061,115.990 101.246,120.600 99.609 C 121.920 99.141,123.270 98.615,123.600 98.441 C 124.734 97.841,129.611 96.957,137.189 95.976 C 141.653 95.398,142.073 94.743,140.631 90.600 L 140.074 89.000 94.106 88.898 C 68.823 88.842,48.016 88.917,47.868 89.065 M256.332 96.021 C 278.237 98.408,298.321 112.304,312.666 135.000 C 316.125 140.473,320.328 149.211,322.573 155.600 C 323.385 157.910,324.210 160.250,324.407 160.800 C 328.161 171.284,330.183 188.139,329.542 203.600 C 329.183 212.271,328.503 217.008,326.330 226.000 C 324.393 234.013,320.190 244.280,315.468 252.531 C 307.532 266.401,293.876 278.577,280.400 283.800 C 278.310 284.610,276.240 285.429,275.800 285.621 C 269.576 288.329,254.383 288.718,244.303 286.429 C 228.596 282.861,210.530 270.074,200.388 255.346 C 195.369 248.058,195.393 248.098,191.808 241.447 C 189.006 236.249,185.028 226.166,183.583 220.600 C 183.412 219.940,182.908 218.050,182.464 216.400 C 181.634 213.312,180.465 206.928,179.572 200.600 C 178.895 195.804,178.875 177.726,179.541 173.000 C 180.580 165.620,181.026 163.298,182.496 157.600 C 182.922 155.950,183.361 154.240,183.473 153.800 C 184.040 151.561,184.952 148.820,185.636 147.304 C 186.056 146.372,186.400 145.391,186.400 145.124 C 186.400 143.419,196.069 125.771,197.280 125.267 C 197.456 125.193,197.600 124.967,197.600 124.763 C 197.600 124.171,202.025 118.887,205.453 115.385 C 216.437 104.164,230.735 97.126,244.800 96.016 C 250.554 95.562,252.123 95.563,256.332 96.021 M77.142 117.807 C 75.419 118.743,74.880 121.152,75.454 125.344 C 75.912 128.682,76.790 129.157,82.742 129.288 L 87.798 129.400 87.663 133.636 C 87.474 139.538,87.938 140.097,93.259 140.392 C 96.986 140.599,97.000 140.604,97.127 141.702 C 97.216 142.480,97.039 142.882,96.527 143.067 C 93.870 144.028,93.634 144.519,93.513 149.318 L 93.400 153.800 91.200 154.000 C 87.475 154.339,86.400 155.424,86.400 158.846 C 86.400 162.554,87.295 163.507,90.939 163.682 L 93.400 163.800 93.600 168.124 C 93.871 173.975,95.084 174.800,103.421 174.800 C 113.490 174.800,118.588 169.492,118.596 159.000 C 118.601 152.059,117.208 148.951,112.265 144.880 C 110.741 143.625,111.018 142.701,113.039 142.301 C 117.698 141.380,117.908 133.023,113.279 132.732 C 112.686 132.695,111.266 132.649,110.124 132.630 C 108.399 132.602,107.842 132.399,106.824 131.423 C 105.126 129.796,105.237 129.200,107.240 129.200 C 111.571 129.200,113.208 119.873,109.237 117.819 C 107.520 116.931,78.774 116.920,77.142 117.807 M107.121 122.605 C 107.482 122.734,107.605 123.439,107.521 124.896 L 107.400 127.000 93.800 127.000 L 80.200 127.000 80.075 125.013 C 79.988 123.646,80.125 122.898,80.513 122.613 C 81.069 122.206,105.982 122.198,107.121 122.605 M102.749 134.174 C 104.637 135.131,107.152 137.557,107.249 138.514 C 107.276 138.781,107.411 140.869,107.549 143.154 L 107.800 147.309 109.165 148.039 C 113.081 150.134,114.800 153.527,114.800 159.165 C 114.800 167.396,111.203 171.051,103.200 170.951 C 97.761 170.883,97.126 170.556,97.279 167.902 L 97.400 165.800 101.245 165.938 C 107.022 166.144,108.400 164.784,108.400 158.875 C 108.400 153.408,106.753 151.897,101.000 152.083 L 97.400 152.200 97.281 149.927 L 97.162 147.654 98.940 146.868 C 100.993 145.960,101.436 144.844,100.971 141.749 C 100.527 138.785,99.406 138.000,95.622 138.000 C 92.069 138.000,91.600 137.695,91.600 135.387 C 91.600 133.168,91.528 133.200,96.480 133.200 C 100.293 133.200,101.063 133.320,102.749 134.174 M112.400 137.800 C 112.797 138.279,112.797 138.521,112.400 139.000 C 111.703 139.840,110.532 139.748,110.293 138.834 C 109.923 137.417,111.458 136.664,112.400 137.800 M104.667 155.733 C 105.164 156.230,105.274 160.191,104.823 161.358 L 104.376 162.516 100.603 162.291 C 95.860 162.008,96.000 162.121,96.000 158.597 L 96.000 155.642 98.100 155.475 C 100.838 155.257,104.327 155.394,104.667 155.733 M92.800 158.976 C 92.800 160.144,92.278 160.542,91.196 160.199 C 89.812 159.760,90.135 158.000,91.600 158.000 C 92.606 158.000,92.800 158.158,92.800 158.976 M76.900 185.415 C 75.187 186.615,74.800 191.355,76.109 195.106 C 76.487 196.188,76.448 196.611,75.883 197.568 C 75.042 198.991,74.959 203.449,75.738 205.313 C 76.749 207.730,76.944 207.781,85.756 207.891 C 90.180 207.947,94.340 208.003,95.000 208.017 C 96.172 208.041,96.162 208.056,94.600 208.655 C 91.001 210.036,90.033 210.532,88.868 211.597 C 87.783 212.588,87.284 212.730,84.431 212.859 C 79.679 213.075,79.438 213.400,79.267 219.830 C 79.085 226.669,80.210 228.062,85.417 227.450 C 87.402 227.216,87.624 227.283,89.185 228.587 C 90.107 229.358,91.854 230.268,93.121 230.638 C 96.672 231.674,96.711 231.707,94.762 232.020 C 91.232 232.588,90.800 233.314,90.800 238.681 C 90.800 242.260,92.008 244.000,94.493 244.000 C 96.699 244.000,97.655 244.985,96.443 246.010 C 95.108 247.141,95.709 247.483,97.417 246.564 C 102.476 243.845,102.329 238.775,97.166 237.959 C 94.780 237.582,94.415 237.205,94.406 235.114 C 94.399 233.412,95.155 232.801,97.274 232.798 C 99.937 232.794,100.987 231.362,100.933 227.809 C 100.876 224.069,100.562 223.642,98.567 224.589 C 95.817 225.894,92.648 224.958,90.625 222.245 C 89.343 220.526,89.428 215.096,90.764 213.315 C 92.536 210.954,97.135 209.893,98.854 211.449 C 100.282 212.741,100.801 211.903,100.794 208.313 C 100.784 202.950,100.990 203.050,89.439 202.800 L 80.200 202.600 80.080 200.300 L 79.960 198.000 89.880 198.006 C 100.960 198.012,102.111 198.212,105.070 200.636 C 107.946 202.993,108.535 210.012,106.271 214.956 C 104.946 217.852,104.946 218.135,106.272 220.825 C 107.819 223.966,107.909 231.023,106.436 233.728 L 105.472 235.499 106.436 237.049 C 107.971 239.518,107.824 243.333,106.100 245.779 C 104.532 248.004,104.542 247.720,105.967 249.523 C 107.680 251.691,108.076 253.579,107.351 256.118 C 106.257 259.948,106.256 259.973,107.054 260.234 C 107.464 260.368,108.392 260.775,109.115 261.138 C 110.276 261.721,110.475 261.728,110.809 261.199 C 111.280 260.454,111.321 255.038,110.862 254.095 C 110.677 253.713,110.317 252.997,110.062 252.505 C 108.887 250.231,110.317 247.558,113.225 246.592 C 116.189 245.607,116.400 245.100,116.400 238.957 C 116.400 233.059,116.139 232.530,113.127 232.328 C 111.400 232.211,111.213 231.881,111.206 228.931 C 111.202 227.261,110.818 225.340,110.020 222.994 C 109.230 220.669,108.956 219.306,109.190 218.862 C 112.890 211.856,111.683 202.543,106.568 198.638 C 104.721 197.227,104.833 196.800,107.053 196.800 C 111.225 196.800,113.193 188.045,109.635 185.313 C 108.582 184.505,78.064 184.600,76.900 185.415 M107.124 187.545 C 107.472 187.765,107.607 188.540,107.524 189.839 L 107.400 191.800 93.800 191.800 L 80.200 191.800 80.075 190.054 C 79.856 187.000,78.916 187.199,93.487 187.206 C 100.699 187.209,106.836 187.362,107.124 187.545 M85.367 214.643 C 86.107 214.927,86.200 216.040,85.539 216.701 C 85.221 217.019,84.847 217.039,84.339 216.767 C 83.500 216.318,83.347 214.969,84.100 214.665 C 84.375 214.554,84.630 214.449,84.667 214.432 C 84.704 214.414,85.019 214.509,85.367 214.643 M95.426 216.131 C 94.065 217.127,94.772 220.000,96.379 220.000 C 98.572 220.000,99.188 217.064,97.217 216.009 C 96.260 215.497,96.298 215.494,95.426 216.131 M85.800 220.400 C 85.800 221.133,85.559 221.434,84.898 221.528 C 83.915 221.668,83.357 220.810,83.755 219.772 C 84.161 218.716,85.800 219.219,85.800 220.400 M112.354 233.163 C 113.282 233.751,112.573 235.681,111.486 235.526 C 110.458 235.380,110.016 233.689,110.865 233.151 C 111.533 232.728,111.668 232.729,112.354 233.163 M112.320 238.080 C 112.998 238.758,112.916 239.870,112.167 240.157 C 111.152 240.547,110.855 240.450,110.386 239.574 C 109.631 238.163,111.194 236.954,112.320 238.080 M93.600 248.000 C 93.600 248.220,93.319 248.400,92.977 248.400 C 90.375 248.400,86.810 254.365,86.804 258.726 C 86.795 265.599,89.987 268.593,99.001 270.167 C 103.211 270.901,104.068 271.409,105.305 273.895 C 107.771 278.852,119.283 277.760,118.704 272.624 C 118.438 270.261,116.467 266.509,114.444 264.511 C 112.192 262.289,112.023 262.536,113.602 265.744 C 115.183 268.954,115.039 269.200,111.587 269.200 C 108.867 269.200,108.809 269.178,108.163 267.900 C 106.463 264.535,104.808 263.714,97.200 262.463 C 90.024 261.282,88.233 251.647,94.534 248.114 L 95.400 247.628 94.500 247.614 C 94.005 247.606,93.600 247.780,93.600 248.000 M97.692 252.268 C 95.844 253.011,95.837 256.711,97.682 257.361 C 99.049 257.842,99.840 257.483,100.767 255.958 C 102.234 253.545,100.297 251.220,97.692 252.268 M75.630 284.822 C 74.984 285.713,73.768 286.971,72.928 287.617 C 72.088 288.262,71.168 288.986,70.885 289.225 C 70.602 289.463,69.072 290.248,67.485 290.968 C 64.483 292.330,64.421 292.339,53.041 293.189 C 49.867 293.427,48.170 293.721,47.947 294.073 C 47.561 294.680,47.481 300.024,47.843 300.967 C 48.215 301.937,140.985 301.937,141.357 300.967 C 141.703 300.066,141.647 294.693,141.285 294.124 C 141.102 293.837,138.923 293.475,135.791 293.213 C 122.871 292.130,121.949 291.927,116.520 288.968 C 113.940 287.561,112.817 286.669,111.737 285.165 L 110.325 283.200 93.565 283.200 L 76.805 283.200 75.630 284.822 " stroke="none" fill="#fbf7f7" fill-rule="evenodd"></path><path id="path1" d="M184.200 1.429 C 166.439 3.067,148.292 6.852,135.300 11.628 C 134.145 12.053,132.165 12.780,130.900 13.245 C 126.400 14.897,113.601 20.348,113.200 20.783 C 113.090 20.902,111.200 21.889,109.000 22.975 C 105.629 24.639,103.364 25.889,99.200 28.382 C 93.108 32.029,90.565 33.660,86.400 36.588 C 85.190 37.439,83.660 38.510,83.000 38.968 C 80.201 40.909,69.931 49.279,66.220 52.644 C 57.000 61.002,45.296 74.048,38.807 83.200 C 36.451 86.524,31.059 94.657,29.960 96.545 C 29.302 97.675,28.597 98.870,28.393 99.200 C 23.863 106.534,16.520 121.755,13.557 129.955 C 4.898 153.914,0.810 176.550,0.803 200.579 C 0.799 210.629,1.709 222.008,3.267 231.400 C 3.705 234.040,4.153 236.920,4.262 237.800 C 4.372 238.680,4.614 239.760,4.800 240.200 C 4.987 240.640,5.427 242.509,5.778 244.353 C 6.130 246.197,6.507 247.850,6.616 248.026 C 6.725 248.202,6.973 249.124,7.168 250.073 C 7.946 253.867,11.739 266.383,12.783 268.600 C 12.990 269.040,13.424 270.216,13.746 271.214 C 15.507 276.664,25.142 296.948,27.628 300.439 C 28.052 301.035,28.400 301.625,28.400 301.748 C 28.400 302.007,31.972 307.609,34.936 312.000 C 39.536 318.813,45.586 326.617,51.399 333.236 C 60.313 343.387,75.644 356.869,87.155 364.681 C 89.490 366.265,91.580 367.714,91.800 367.901 C 92.020 368.088,92.470 368.362,92.800 368.511 C 93.130 368.660,94.660 369.588,96.200 370.574 C 118.475 384.837,149.522 395.599,177.000 398.580 C 180.300 398.938,184.170 399.419,185.600 399.648 C 188.244 400.072,213.049 399.902,217.000 399.432 C 218.100 399.301,220.620 399.010,222.600 398.786 C 224.580 398.561,227.280 398.210,228.600 398.005 C 233.667 397.221,238.664 396.370,240.200 396.031 C 241.080 395.837,242.790 395.464,244.000 395.202 C 245.210 394.940,246.740 394.570,247.400 394.380 C 248.060 394.190,250.490 393.557,252.800 392.974 C 259.943 391.170,268.617 388.147,280.400 383.355 C 291.583 378.807,311.854 366.819,322.000 358.755 C 335.029 348.399,344.553 339.200,342.246 339.200 C 341.644 339.200,341.766 339.236,329.200 335.379 C 318.223 332.009,305.130 327.591,301.600 326.064 C 301.050 325.826,297.810 324.554,294.400 323.238 C 287.679 320.642,276.114 315.848,272.225 314.045 C 270.891 313.426,269.170 312.643,268.400 312.304 C 263.025 309.938,250.694 303.915,242.600 299.704 C 239.520 298.101,235.830 296.416,234.400 295.960 C 215.803 290.029,200.761 282.733,191.000 274.910 C 190.780 274.733,189.070 273.380,187.200 271.902 C 170.519 258.718,157.341 237.826,152.053 216.179 C 148.534 201.770,148.247 179.233,151.415 166.000 C 152.934 159.654,155.442 151.195,156.560 148.647 C 156.861 147.961,157.488 146.547,157.953 145.504 C 158.419 144.462,158.800 143.489,158.800 143.343 C 158.800 141.356,168.113 126.235,172.800 120.611 C 190.920 98.869,213.285 86.877,243.400 82.754 C 248.128 82.107,265.156 82.096,269.800 82.738 C 278.667 83.962,283.295 84.798,286.800 85.809 C 293.113 87.629,294.917 88.231,298.400 89.684 C 310.823 94.863,320.399 101.378,330.206 111.322 C 355.298 136.764,365.675 173.219,358.408 210.400 C 357.550 214.792,354.288 225.404,353.558 226.180 C 353.361 226.389,353.200 226.890,353.200 227.293 C 353.200 227.945,348.299 238.258,346.486 241.419 C 339.270 254.006,328.292 266.330,315.740 275.934 C 308.215 281.692,298.705 287.485,289.800 291.735 C 287.160 292.995,283.938 294.538,282.640 295.164 L 280.279 296.302 281.240 296.921 C 282.210 297.546,299.558 303.429,306.200 305.386 C 308.180 305.969,310.160 306.598,310.600 306.784 C 311.040 306.970,313.380 307.697,315.800 308.400 C 319.713 309.536,321.973 310.173,329.400 312.231 C 330.500 312.536,332.930 313.159,334.800 313.616 C 336.670 314.073,338.560 314.593,339.000 314.772 C 339.821 315.105,349.440 317.449,354.800 318.620 C 356.450 318.981,358.290 319.428,358.890 319.614 C 360.159 320.007,361.175 318.997,364.590 313.944 C 365.684 312.325,366.682 310.910,366.808 310.800 C 366.933 310.690,367.409 309.970,367.866 309.200 C 368.323 308.430,370.277 305.190,372.208 302.000 C 381.240 287.085,390.359 265.101,393.611 250.400 C 393.879 249.190,394.237 247.840,394.407 247.400 C 394.577 246.960,394.929 245.520,395.188 244.200 C 395.447 242.880,395.824 241.170,396.025 240.400 C 396.759 237.586,398.508 226.108,399.285 219.000 C 399.901 213.375,400.157 188.949,399.641 185.000 C 399.412 183.240,399.025 180.090,398.782 178.000 C 397.918 170.571,397.556 168.137,396.555 163.000 C 393.825 148.993,388.595 132.043,383.596 121.000 C 383.098 119.900,382.248 118.010,381.708 116.800 C 379.518 111.900,375.292 103.877,372.142 98.640 C 370.964 96.682,370.000 95.031,370.000 94.971 C 370.000 94.655,362.170 83.247,361.356 82.378 C 360.830 81.816,360.400 81.236,360.400 81.089 C 360.400 79.369,340.914 58.013,333.815 51.953 C 332.944 51.209,331.941 50.330,331.587 50.000 C 325.976 44.775,315.776 37.171,306.466 31.273 C 303.973 29.693,301.827 28.400,301.698 28.400 C 301.569 28.400,301.179 28.154,300.831 27.853 C 299.813 26.971,287.812 20.737,282.800 18.486 C 279.276 16.904,272.972 14.329,271.200 13.749 C 270.210 13.425,269.040 12.995,268.600 12.794 C 266.519 11.842,256.756 8.800,250.600 7.185 C 242.490 5.057,229.879 2.764,222.200 2.021 C 219.560 1.765,215.749 1.386,213.732 1.178 C 208.655 0.655,190.967 0.805,184.200 1.429 M140.631 90.600 C 142.073 94.743,141.653 95.398,137.189 95.976 C 129.611 96.957,124.734 97.841,123.600 98.441 C 123.270 98.615,121.920 99.141,120.600 99.609 C 115.990 101.246,113.703 103.061,111.982 106.450 C 110.490 109.387,111.658 109.200,94.844 109.200 C 78.390 109.200,79.264 109.359,78.238 106.175 C 77.704 104.516,77.258 103.943,75.772 103.004 C 74.774 102.373,73.571 101.521,73.097 101.111 C 71.518 99.741,69.821 98.929,67.600 98.481 C 61.773 97.304,60.183 97.112,54.600 96.915 C 51.300 96.798,48.375 96.522,48.100 96.302 C 47.570 95.878,47.368 89.566,47.868 89.065 C 48.016 88.917,68.823 88.842,94.106 88.898 L 140.074 89.000 140.631 90.600 M244.800 96.016 C 230.735 97.126,216.437 104.164,205.453 115.385 C 202.025 118.887,197.600 124.171,197.600 124.763 C 197.600 124.967,197.456 125.193,197.280 125.267 C 196.069 125.771,186.400 143.419,186.400 145.124 C 186.400 145.391,186.056 146.372,185.636 147.304 C 184.952 148.820,184.040 151.561,183.473 153.800 C 183.361 154.240,182.922 155.950,182.496 157.600 C 181.026 163.298,180.580 165.620,179.541 173.000 C 178.875 177.726,178.895 195.804,179.572 200.600 C 180.465 206.928,181.634 213.312,182.464 216.400 C 182.908 218.050,183.412 219.940,183.583 220.600 C 186.058 230.131,192.076 243.265,197.745 251.506 C 198.875 253.149,200.064 254.877,200.388 255.346 C 210.530 270.074,228.596 282.861,244.303 286.429 C 254.383 288.718,269.576 288.329,275.800 285.621 C 276.240 285.429,278.310 284.610,280.400 283.800 C 293.876 278.577,307.532 266.401,315.468 252.531 C 317.657 248.705,320.198 243.528,321.519 240.200 C 324.904 231.676,325.394 230.117,327.367 221.600 C 330.458 208.261,330.457 186.583,327.365 172.400 C 326.554 168.678,324.886 162.138,324.407 160.800 C 324.210 160.250,323.385 157.910,322.573 155.600 C 320.328 149.211,316.125 140.473,312.666 135.000 C 299.908 114.815,283.223 101.982,263.600 97.261 C 257.308 95.747,252.362 95.420,244.800 96.016 M109.237 117.819 C 113.208 119.873,111.571 129.200,107.240 129.200 C 105.237 129.200,105.126 129.796,106.824 131.423 C 107.842 132.399,108.399 132.602,110.124 132.630 C 111.266 132.649,112.686 132.695,113.279 132.732 C 117.908 133.023,117.698 141.380,113.039 142.301 C 111.018 142.701,110.741 143.625,112.265 144.880 C 117.208 148.951,118.601 152.059,118.596 159.000 C 118.588 169.492,113.490 174.800,103.421 174.800 C 95.084 174.800,93.871 173.975,93.600 168.124 L 93.400 163.800 90.939 163.682 C 87.295 163.507,86.400 162.554,86.400 158.846 C 86.400 155.424,87.475 154.339,91.200 154.000 L 93.400 153.800 93.513 149.318 C 93.634 144.519,93.870 144.028,96.527 143.067 C 97.039 142.882,97.216 142.480,97.127 141.702 C 97.000 140.604,96.986 140.599,93.259 140.392 C 87.938 140.097,87.474 139.538,87.663 133.636 L 87.798 129.400 82.742 129.288 C 76.790 129.157,75.912 128.682,75.454 125.344 C 74.880 121.152,75.419 118.743,77.142 117.807 C 78.774 116.920,107.520 116.931,109.237 117.819 M80.513 122.613 C 80.125 122.898,79.988 123.646,80.075 125.013 L 80.200 127.000 93.800 127.000 L 107.400 127.000 107.521 124.896 C 107.605 123.439,107.482 122.734,107.121 122.605 C 105.982 122.198,81.069 122.206,80.513 122.613 M91.867 133.467 C 91.411 133.922,91.574 137.014,92.080 137.520 C 92.370 137.810,93.774 138.000,95.622 138.000 C 99.406 138.000,100.527 138.785,100.971 141.749 C 101.436 144.844,100.993 145.960,98.940 146.868 L 97.162 147.654 97.281 149.927 L 97.400 152.200 101.000 152.083 C 106.753 151.897,108.400 153.408,108.400 158.875 C 108.400 164.784,107.022 166.144,101.245 165.938 L 97.400 165.800 97.279 167.902 C 97.014 172.514,108.954 172.215,112.535 167.521 C 116.971 161.705,115.162 151.247,109.165 148.039 L 107.800 147.309 107.549 143.154 C 107.411 140.869,107.276 138.781,107.249 138.514 C 107.152 137.557,104.637 135.131,102.749 134.174 C 100.845 133.209,92.657 132.677,91.867 133.467 M110.526 137.634 C 109.905 138.255,110.365 139.600,111.198 139.600 C 112.302 139.600,113.012 138.537,112.400 137.800 C 111.813 137.092,111.129 137.031,110.526 137.634 M98.100 155.475 L 96.000 155.642 96.000 158.597 C 96.000 162.121,95.860 162.008,100.603 162.291 L 104.376 162.516 104.823 161.358 C 105.274 160.191,105.164 156.230,104.667 155.733 C 104.327 155.394,100.838 155.257,98.100 155.475 M90.400 158.973 C 90.400 159.965,91.592 160.699,92.396 160.202 C 93.402 159.581,92.830 158.000,91.600 158.000 C 90.596 158.000,90.400 158.159,90.400 158.973 M109.635 185.313 C 113.193 188.045,111.225 196.800,107.053 196.800 C 104.833 196.800,104.721 197.227,106.568 198.638 C 111.683 202.543,112.890 211.856,109.190 218.862 C 108.956 219.306,109.230 220.669,110.020 222.994 C 110.818 225.340,111.202 227.261,111.206 228.931 C 111.213 231.881,111.400 232.211,113.127 232.328 C 116.139 232.530,116.400 233.059,116.400 238.957 C 116.400 245.100,116.189 245.607,113.225 246.592 C 110.317 247.558,108.887 250.231,110.062 252.505 C 110.317 252.997,110.677 253.713,110.862 254.095 C 111.321 255.038,111.280 260.454,110.809 261.199 C 110.475 261.728,110.276 261.721,109.115 261.138 C 108.392 260.775,107.464 260.368,107.054 260.234 C 106.256 259.973,106.257 259.948,107.351 256.118 C 108.076 253.579,107.680 251.691,105.967 249.523 C 104.542 247.720,104.532 248.004,106.100 245.779 C 107.824 243.333,107.971 239.518,106.436 237.049 L 105.472 235.499 106.436 233.728 C 107.909 231.023,107.819 223.966,106.272 220.825 C 104.946 218.135,104.946 217.852,106.271 214.956 C 108.535 210.012,107.946 202.993,105.070 200.636 C 102.111 198.212,100.960 198.012,89.880 198.006 L 79.960 198.000 80.080 200.300 L 80.200 202.600 89.439 202.800 C 100.990 203.050,100.784 202.950,100.794 208.313 C 100.801 211.903,100.282 212.741,98.854 211.449 C 97.135 209.893,92.536 210.954,90.764 213.315 C 89.428 215.096,89.343 220.526,90.625 222.245 C 92.648 224.958,95.817 225.894,98.567 224.589 C 100.562 223.642,100.876 224.069,100.933 227.809 C 100.987 231.362,99.937 232.794,97.274 232.798 C 95.155 232.801,94.399 233.412,94.406 235.114 C 94.415 237.205,94.780 237.582,97.166 237.959 C 102.329 238.775,102.476 243.845,97.417 246.564 C 95.709 247.483,95.108 247.141,96.443 246.010 C 97.655 244.985,96.699 244.000,94.493 244.000 C 92.008 244.000,90.800 242.260,90.800 238.681 C 90.800 233.314,91.232 232.588,94.762 232.020 C 96.711 231.707,96.672 231.674,93.121 230.638 C 91.854 230.268,90.107 229.358,89.185 228.587 C 87.624 227.283,87.402 227.216,85.417 227.450 C 80.210 228.062,79.085 226.669,79.267 219.830 C 79.438 213.400,79.679 213.075,84.431 212.859 C 87.284 212.730,87.783 212.588,88.868 211.597 C 90.033 210.532,91.001 210.036,94.600 208.655 C 96.162 208.056,96.172 208.041,95.000 208.017 C 94.340 208.003,90.180 207.947,85.756 207.891 C 76.944 207.781,76.749 207.730,75.738 205.313 C 74.959 203.449,75.042 198.991,75.883 197.568 C 76.448 196.611,76.487 196.188,76.109 195.106 C 74.800 191.355,75.187 186.615,76.900 185.415 C 78.064 184.600,108.582 184.505,109.635 185.313 M80.162 187.754 C 80.045 188.059,80.006 189.094,80.075 190.054 L 80.200 191.800 93.800 191.800 L 107.400 191.800 107.524 189.839 C 107.607 188.540,107.472 187.765,107.124 187.545 C 106.142 186.922,80.405 187.122,80.162 187.754 M84.100 214.665 C 83.347 214.969,83.500 216.318,84.339 216.767 C 85.194 217.225,86.000 216.640,86.000 215.563 C 86.000 215.039,85.064 214.245,84.667 214.432 C 84.630 214.449,84.375 214.554,84.100 214.665 M97.217 216.009 C 98.682 216.793,98.971 217.966,97.965 219.038 C 96.425 220.676,94.700 219.985,94.700 217.730 C 94.700 216.158,95.927 215.319,97.217 216.009 M83.755 219.772 C 83.357 220.810,83.915 221.668,84.898 221.528 C 85.559 221.434,85.800 221.133,85.800 220.400 C 85.800 219.219,84.161 218.716,83.755 219.772 M110.865 233.151 C 110.016 233.689,110.458 235.380,111.486 235.526 C 112.162 235.622,112.435 235.399,112.640 234.583 C 112.990 233.188,112.030 232.413,110.865 233.151 M110.421 238.174 C 109.915 238.784,110.467 240.400,111.181 240.400 C 112.654 240.400,113.308 239.068,112.320 238.080 C 111.680 237.440,111.002 237.474,110.421 238.174 M94.534 248.114 C 88.233 251.647,90.024 261.282,97.200 262.463 C 104.808 263.714,106.463 264.535,108.163 267.900 C 108.809 269.178,108.867 269.200,111.587 269.200 C 115.039 269.200,115.183 268.954,113.602 265.744 C 112.023 262.536,112.192 262.289,114.444 264.511 C 116.467 266.509,118.438 270.261,118.704 272.624 C 119.283 277.760,107.771 278.852,105.305 273.895 C 104.068 271.409,103.211 270.901,99.001 270.167 C 89.987 268.593,86.795 265.599,86.804 258.726 C 86.810 254.365,90.375 248.400,92.977 248.400 C 93.319 248.400,93.600 248.220,93.600 248.000 C 93.600 247.780,94.005 247.606,94.500 247.614 L 95.400 247.628 94.534 248.114 M100.275 252.314 C 101.852 253.317,101.237 256.750,99.351 257.474 C 98.212 257.911,96.678 257.078,96.348 255.843 C 95.688 253.373,98.279 251.045,100.275 252.314 M111.737 285.165 C 112.817 286.669,113.940 287.561,116.520 288.968 C 121.949 291.927,122.871 292.130,135.791 293.213 C 138.923 293.475,141.102 293.837,141.285 294.124 C 141.647 294.693,141.703 300.066,141.357 300.967 C 140.985 301.937,48.215 301.937,47.843 300.967 C 47.481 300.024,47.561 294.680,47.947 294.073 C 48.170 293.721,49.867 293.427,53.041 293.189 C 64.421 292.339,64.483 292.330,67.485 290.968 C 69.072 290.248,70.602 289.463,70.885 289.225 C 71.168 288.986,72.088 288.262,72.928 287.617 C 73.768 286.971,74.984 285.713,75.630 284.822 L 76.805 283.200 93.565 283.200 L 110.325 283.200 111.737 285.165 " stroke="none" fill="#e4232b" fill-rule="evenodd"></path></g></svg>