<svg id="svg" version="1.1" xmlns="http://www.w3.org/2000/svg" xmlns:xlink="http://www.w3.org/1999/xlink" width="400" height="400" viewBox="0, 0, 400,400"><g id="svgg"><path id="path0" d="M0.000 91.600 C 0.000 145.502,0.148 183.200,0.359 183.200 C 0.557 183.200,0.838 181.895,0.983 180.300 C 1.128 178.705,1.491 175.870,1.789 174.000 C 2.087 172.130,2.446 169.610,2.587 168.400 C 3.349 161.829,8.270 141.352,9.828 138.268 C 10.143 137.645,10.400 136.901,10.400 136.616 C 10.400 134.960,17.798 116.588,20.491 111.555 C 21.034 110.541,21.588 109.371,21.723 108.955 C 21.858 108.540,23.190 106.099,24.684 103.531 C 26.178 100.963,28.070 97.703,28.889 96.286 C 30.943 92.732,35.438 85.972,36.403 84.986 C 36.842 84.538,37.200 84.034,37.200 83.865 C 37.200 83.330,43.374 75.322,47.839 70.065 C 53.181 63.775,64.479 52.469,69.800 48.086 C 72.000 46.275,74.160 44.455,74.600 44.043 C 75.040 43.630,77.380 41.844,79.800 40.072 C 82.220 38.300,84.471 36.615,84.802 36.326 C 85.133 36.036,86.843 34.916,88.602 33.836 C 90.361 32.756,92.077 31.638,92.415 31.351 C 93.138 30.738,98.935 27.247,103.200 24.856 C 104.850 23.931,106.470 23.007,106.800 22.803 C 110.897 20.270,131.627 11.522,135.800 10.565 C 136.460 10.413,137.360 10.096,137.800 9.860 C 139.222 9.098,155.776 4.801,161.304 3.760 C 166.807 2.723,175.068 1.501,180.100 0.980 C 188.224 0.140,175.541 0.000,91.200 0.000 L 0.000 0.000 0.000 91.600 M216.000 0.366 C 216.000 0.567,217.395 0.848,219.100 0.991 C 220.805 1.133,223.100 1.422,224.200 1.632 C 225.300 1.843,228.180 2.272,230.600 2.586 C 238.385 3.596,251.421 6.649,260.000 9.472 C 260.990 9.798,262.610 10.309,263.600 10.607 C 264.590 10.905,267.290 11.901,269.600 12.819 C 271.910 13.738,274.289 14.579,274.887 14.688 C 275.485 14.797,276.182 15.137,276.436 15.444 C 276.690 15.750,277.146 16.000,277.450 16.000 C 277.753 16.000,279.891 16.900,282.200 18.000 C 284.509 19.100,286.560 20.000,286.756 20.000 C 286.953 20.000,287.218 20.270,287.345 20.600 C 287.471 20.930,287.884 21.200,288.261 21.200 C 288.917 21.200,292.133 22.764,296.000 24.963 C 296.990 25.526,298.211 26.168,298.714 26.389 C 299.217 26.610,301.197 27.826,303.114 29.091 C 305.031 30.356,307.095 31.609,307.700 31.876 C 308.305 32.143,308.800 32.550,308.800 32.781 C 308.800 33.011,308.998 33.200,309.239 33.200 C 309.790 33.200,317.762 38.845,322.230 42.400 C 323.474 43.390,324.939 44.496,325.484 44.858 C 326.995 45.859,336.138 54.258,341.758 59.806 C 349.010 66.967,358.473 78.593,365.032 88.400 C 366.282 90.270,368.002 92.841,368.853 94.113 C 369.704 95.384,370.400 96.515,370.400 96.625 C 370.400 96.735,371.706 99.115,373.301 101.913 C 377.292 108.911,381.881 118.284,383.821 123.400 C 384.404 124.940,385.126 126.740,385.424 127.400 C 385.722 128.060,386.610 130.580,387.398 133.000 C 388.186 135.420,388.983 137.760,389.169 138.200 C 389.534 139.063,391.529 145.902,392.554 149.800 C 392.901 151.120,393.468 153.280,393.815 154.600 C 394.494 157.184,395.402 162.122,396.013 166.563 C 396.223 168.083,396.579 169.883,396.804 170.563 C 397.183 171.704,397.513 174.802,398.386 185.400 C 398.839 190.908,398.846 209.938,398.396 213.600 C 398.193 215.250,397.833 218.760,397.597 221.400 C 397.360 224.040,396.920 227.550,396.618 229.200 C 396.316 230.850,395.763 234.090,395.388 236.400 C 395.012 238.710,394.468 241.320,394.178 242.200 C 393.888 243.080,393.540 244.520,393.404 245.400 C 393.268 246.280,392.919 247.720,392.630 248.600 C 392.340 249.480,391.787 251.550,391.400 253.200 C 390.665 256.338,386.523 269.108,386.016 269.800 C 385.854 270.020,385.299 271.460,384.783 273.000 C 384.266 274.540,383.608 276.084,383.322 276.431 C 383.035 276.779,382.800 277.301,382.800 277.593 C 382.800 278.119,381.676 280.677,379.677 284.699 C 378.433 287.203,378.197 287.301,374.597 286.814 C 373.059 286.605,369.820 286.236,367.400 285.994 C 364.980 285.751,362.460 285.391,361.800 285.193 C 361.140 284.996,358.980 284.644,357.000 284.411 C 355.020 284.178,352.590 283.818,351.600 283.611 C 349.684 283.211,343.798 282.152,341.800 281.849 C 338.439 281.338,325.249 278.409,320.800 277.185 C 318.319 276.503,314.467 275.524,308.800 274.134 C 304.653 273.118,289.940 268.861,284.800 267.191 C 283.370 266.726,281.300 266.106,280.200 265.813 C 277.499 265.093,263.880 260.369,263.487 260.015 C 262.836 259.430,263.718 258.464,265.526 257.783 C 267.355 257.094,277.609 251.927,280.400 250.287 C 291.552 243.738,303.421 233.695,309.600 225.581 C 310.150 224.859,310.966 223.893,311.413 223.434 C 312.491 222.329,317.600 214.644,317.600 214.128 C 317.600 213.906,317.960 213.398,318.400 213.000 C 318.840 212.602,319.200 212.089,319.200 211.860 C 319.200 211.631,319.995 209.903,320.966 208.022 C 322.934 204.211,326.102 196.339,326.827 193.459 C 327.086 192.429,327.456 191.489,327.649 191.370 C 327.842 191.250,328.000 190.562,328.000 189.840 C 328.000 189.118,328.275 187.644,328.612 186.564 C 330.422 180.757,331.310 165.088,330.239 157.874 C 329.887 155.510,329.599 152.816,329.598 151.888 C 329.596 150.960,329.326 149.684,328.998 149.054 C 328.669 148.424,328.400 147.405,328.400 146.790 C 328.400 146.175,328.042 144.530,327.605 143.136 C 327.168 141.741,326.808 140.231,326.805 139.780 C 326.802 139.329,326.606 138.766,326.369 138.529 C 326.132 138.292,325.787 137.491,325.602 136.749 C 325.215 135.199,322.897 128.895,322.384 128.000 C 322.195 127.670,321.203 125.742,320.180 123.715 C 319.156 121.689,318.067 119.822,317.760 119.566 C 317.452 119.311,317.200 118.838,317.200 118.514 C 317.200 118.191,316.828 117.448,316.373 116.863 C 314.702 114.714,311.329 110.150,310.120 108.400 C 308.691 106.333,308.641 106.279,303.356 101.194 C 297.287 95.354,291.966 91.294,286.800 88.562 C 286.030 88.155,284.410 87.256,283.200 86.563 C 281.990 85.871,280.460 85.183,279.800 85.033 C 279.140 84.884,277.700 84.334,276.600 83.811 C 264.743 78.173,239.265 76.142,223.361 79.567 C 215.959 81.161,213.776 81.669,213.000 81.981 C 212.560 82.157,210.310 82.987,208.000 83.825 C 203.828 85.338,195.472 89.430,193.646 90.855 C 193.121 91.265,192.523 91.600,192.316 91.600 C 191.898 91.600,186.994 95.198,183.600 97.994 C 179.951 101.000,171.832 109.300,169.713 112.190 C 166.434 116.662,160.800 125.801,160.800 126.648 C 160.800 126.898,160.530 127.326,160.200 127.600 C 159.870 127.874,159.600 128.364,159.600 128.689 C 159.600 129.013,159.341 129.846,159.025 130.540 C 156.256 136.609,154.011 144.062,152.379 152.600 C 151.048 159.563,150.910 181.381,152.175 184.679 C 152.294 184.990,152.581 186.449,152.813 187.922 C 153.045 189.395,153.400 191.140,153.602 191.800 C 156.479 201.209,160.245 210.828,161.823 212.800 C 162.087 213.130,162.621 214.030,163.009 214.800 C 168.565 225.821,182.361 239.481,195.800 247.269 C 201.373 250.499,210.969 255.200,211.989 255.200 C 212.221 255.200,212.723 255.372,213.105 255.583 C 213.487 255.793,216.320 256.784,219.400 257.786 C 223.438 259.098,227.901 261.048,235.400 264.775 C 247.707 270.892,252.747 273.258,258.400 275.572 C 261.290 276.755,263.315 277.653,266.006 278.943 C 267.219 279.524,268.352 280.000,268.525 280.000 C 268.697 280.000,271.754 281.147,275.319 282.550 C 278.884 283.952,285.040 286.221,289.000 287.592 C 292.960 288.963,296.830 290.316,297.600 290.598 C 300.055 291.499,315.338 295.940,317.000 296.236 C 317.880 296.393,318.960 296.742,319.400 297.012 C 319.840 297.283,321.073 297.615,322.140 297.750 C 323.208 297.885,324.918 298.258,325.940 298.578 C 328.394 299.346,330.366 299.841,334.000 300.601 C 335.650 300.945,337.720 301.391,338.600 301.590 C 341.008 302.136,355.518 304.702,361.200 305.586 C 363.950 306.014,366.226 306.373,366.257 306.382 C 367.261 306.691,366.201 309.062,363.364 312.853 C 362.437 314.092,361.456 315.532,361.183 316.053 C 360.551 317.259,353.516 326.071,350.048 330.000 C 343.162 337.801,339.349 341.637,330.761 349.400 C 327.262 352.563,318.936 359.283,316.877 360.606 C 315.845 361.269,313.839 362.664,312.420 363.706 C 311.001 364.748,309.666 365.600,309.454 365.600 C 309.241 365.600,308.782 365.881,308.434 366.224 C 307.535 367.108,299.510 372.000,298.957 372.000 C 298.705 372.000,298.257 372.290,297.963 372.645 C 297.668 372.999,296.431 373.782,295.214 374.384 C 293.996 374.986,290.840 376.564,288.200 377.889 C 281.855 381.076,278.442 382.633,277.100 382.953 C 276.495 383.097,276.000 383.392,276.000 383.608 C 276.000 383.823,275.736 384.000,275.413 384.000 C 275.090 384.000,272.721 384.823,270.149 385.828 C 264.708 387.956,258.809 389.903,254.000 391.160 C 252.130 391.648,249.763 392.308,248.740 392.626 C 247.718 392.944,246.008 393.318,244.940 393.458 C 243.873 393.597,242.691 393.869,242.314 394.062 C 241.456 394.501,236.023 395.517,231.800 396.029 C 230.040 396.242,228.060 396.583,227.400 396.787 C 219.848 399.122,178.954 399.120,170.800 396.784 C 170.030 396.564,168.230 396.216,166.800 396.011 C 161.589 395.264,158.955 394.794,156.800 394.227 C 155.590 393.909,153.430 393.362,152.000 393.011 C 150.570 392.660,148.410 392.129,147.200 391.830 C 145.990 391.532,143.852 390.908,142.448 390.444 C 141.044 389.980,139.647 389.600,139.342 389.600 C 139.038 389.600,138.477 389.425,138.095 389.210 C 137.713 388.996,135.960 388.345,134.200 387.763 C 131.150 386.755,124.703 384.367,123.000 383.615 C 118.559 381.654,112.773 378.971,110.000 377.586 C 106.284 375.731,105.698 375.416,101.059 372.783 C 99.332 371.802,97.262 370.628,96.459 370.173 C 95.657 369.718,93.110 368.099,90.800 366.576 C 88.490 365.052,86.281 363.674,85.891 363.512 C 85.501 363.351,85.074 362.938,84.943 362.595 C 84.811 362.251,84.140 361.725,83.451 361.425 C 82.763 361.125,79.590 358.779,76.400 356.212 C 62.829 345.290,50.063 332.439,42.000 321.582 C 41.230 320.545,39.328 318.010,37.773 315.948 C 36.218 313.887,34.446 311.345,33.835 310.300 C 33.224 309.255,32.561 308.400,32.362 308.400 C 32.163 308.400,32.000 308.204,32.000 307.964 C 32.000 307.723,30.821 305.608,29.379 303.264 C 27.938 300.919,26.594 298.730,26.393 298.400 C 25.725 297.300,22.467 291.047,20.767 287.600 C 20.605 287.270,19.844 285.740,19.076 284.200 C 18.309 282.660,17.290 280.500,16.812 279.400 C 16.334 278.300,15.760 277.063,15.538 276.651 C 15.315 276.240,14.893 275.160,14.599 274.251 C 13.477 270.775,11.546 265.786,11.181 265.421 C 10.971 265.211,10.792 264.671,10.782 264.220 C 10.773 263.769,10.495 262.680,10.166 261.800 C 9.630 260.368,9.075 258.503,6.416 249.200 C 6.008 247.770,5.194 244.170,4.608 241.200 C 4.023 238.230,3.383 235.170,3.188 234.400 C 2.992 233.630,2.724 231.920,2.592 230.600 C 2.460 229.280,2.102 226.760,1.796 225.000 C 1.490 223.240,1.119 220.225,0.972 218.300 C 0.826 216.375,0.547 214.800,0.353 214.800 C 0.150 214.800,0.000 254.214,0.000 307.400 L 0.000 400.000 200.000 400.000 L 400.000 400.000 400.000 200.000 L 400.000 0.000 308.000 0.000 C 252.654 0.000,216.000 0.146,216.000 0.366 M138.344 82.589 C 138.206 82.727,121.467 82.876,101.147 82.920 L 64.200 83.000 64.081 85.961 C 63.931 89.711,63.795 89.612,69.660 90.036 C 75.700 90.473,83.974 91.896,84.831 92.647 C 85.179 92.951,85.657 93.200,85.894 93.200 C 86.853 93.200,89.867 96.214,90.877 98.183 C 92.225 100.812,92.101 100.792,107.011 100.797 C 119.105 100.800,118.780 100.870,120.517 97.907 C 123.071 93.548,128.656 91.039,138.117 89.999 C 144.782 89.266,145.200 89.078,145.200 86.811 C 145.200 83.823,144.540 82.800,142.611 82.800 C 141.670 82.800,140.381 82.696,139.747 82.569 C 139.113 82.443,138.482 82.452,138.344 82.589 M247.000 90.420 C 254.681 92.158,255.074 92.296,261.453 95.461 C 269.293 99.352,277.208 105.910,283.378 113.626 C 284.685 115.262,285.945 116.783,286.178 117.007 C 286.410 117.230,286.870 117.882,287.200 118.455 C 287.530 119.028,288.480 120.555,289.311 121.848 C 291.530 125.302,293.600 128.853,293.600 129.204 C 293.600 129.373,294.345 131.016,295.256 132.856 C 296.965 136.306,298.256 139.741,299.668 144.600 C 300.116 146.140,300.713 148.030,300.995 148.800 C 304.874 159.392,305.324 181.565,301.976 197.169 C 300.794 202.675,297.889 211.701,296.934 212.831 C 296.640 213.179,296.400 213.699,296.400 213.987 C 296.400 217.758,285.090 233.182,277.640 239.570 C 261.107 253.747,236.533 256.456,218.881 246.048 C 217.717 245.362,216.677 244.800,216.569 244.800 C 215.935 244.800,210.009 240.536,206.586 237.617 C 202.146 233.830,201.194 232.820,196.568 227.000 C 193.660 223.341,192.807 222.147,190.572 218.600 C 189.210 216.440,186.400 211.469,186.406 211.232 C 186.409 211.104,185.702 209.380,184.834 207.400 C 183.053 203.335,181.176 198.160,180.191 194.600 C 179.826 193.280,179.371 191.803,179.180 191.317 C 178.989 190.831,178.536 188.401,178.173 185.917 C 177.810 183.433,177.318 181.040,177.078 180.600 C 176.188 178.966,176.511 155.673,177.496 150.400 C 178.725 143.823,180.865 135.499,181.543 134.654 C 181.744 134.404,182.038 133.570,182.196 132.800 C 182.526 131.203,187.435 121.108,189.199 118.400 C 189.843 117.410,190.674 116.062,191.045 115.405 C 193.498 111.055,199.261 105.163,207.400 98.685 C 209.102 97.330,212.958 95.163,216.000 93.851 C 217.430 93.235,219.167 92.476,219.860 92.165 C 220.554 91.854,221.400 91.600,221.742 91.600 C 222.083 91.600,222.776 91.418,223.281 91.195 C 227.761 89.219,239.937 88.822,247.000 90.420 M88.738 106.184 C 86.884 107.444,86.397 108.902,86.411 113.160 C 86.427 118.353,88.133 119.962,93.651 119.990 C 96.109 120.003,97.107 121.881,97.192 126.651 C 97.196 126.899,98.190 127.784,99.400 128.618 C 101.341 129.955,101.730 130.395,101.683 131.200 C 101.449 135.176,101.019 136.262,99.465 136.795 C 94.786 138.399,93.938 147.671,98.381 148.650 C 100.556 149.129,100.858 149.300,101.223 150.260 C 101.430 150.806,101.600 151.798,101.600 152.466 C 101.600 162.066,123.752 160.097,126.216 150.278 C 126.360 149.703,126.731 149.023,127.039 148.767 C 128.896 147.227,127.273 135.662,124.749 132.446 C 123.759 131.185,123.821 130.132,124.998 128.217 C 126.889 125.138,125.638 120.271,122.575 118.788 L 120.932 117.992 121.102 113.896 C 121.458 105.299,121.258 105.200,103.509 105.200 L 90.186 105.200 88.738 106.184 M115.526 113.560 C 115.701 116.013,115.818 115.987,104.760 115.994 C 93.407 116.001,92.400 115.821,92.400 113.781 C 92.400 111.669,92.756 111.608,104.600 111.709 L 115.400 111.800 115.526 113.560 M111.649 121.904 C 114.774 123.309,115.361 124.307,115.645 128.697 C 115.881 132.344,115.949 132.572,117.046 133.349 C 122.266 137.044,123.951 144.902,120.515 149.516 C 117.409 153.686,107.200 154.862,107.200 151.049 C 107.200 149.130,107.788 148.800,111.204 148.800 C 115.465 148.800,116.800 147.473,116.800 143.237 C 116.800 138.793,115.237 137.200,110.875 137.200 C 106.911 137.200,105.445 134.261,108.695 132.830 C 112.659 131.085,110.450 125.437,105.600 124.920 L 102.600 124.600 102.469 123.218 C 102.221 120.614,107.195 119.903,111.649 121.904 M103.200 143.000 C 103.200 143.333,102.844 143.600,102.400 143.600 C 101.956 143.600,101.600 143.333,101.600 143.000 C 101.600 142.667,101.956 142.400,102.400 142.400 C 102.844 142.400,103.200 142.667,103.200 143.000 M111.000 142.800 C 111.141 143.028,110.796 143.200,110.200 143.200 C 109.604 143.200,109.259 143.028,109.400 142.800 C 109.536 142.580,109.896 142.400,110.200 142.400 C 110.504 142.400,110.864 142.580,111.000 142.800 M88.181 164.019 L 86.600 165.638 86.600 174.358 C 86.600 184.032,86.709 184.538,89.068 185.809 C 90.627 186.648,90.589 186.235,89.604 191.600 C 89.191 193.849,89.380 197.422,90.053 200.100 C 90.532 202.003,92.340 202.987,96.075 203.378 C 99.526 203.740,99.576 203.821,99.502 209.020 C 99.454 212.462,99.586 213.674,100.120 214.680 C 101.071 216.471,100.986 216.989,99.460 218.699 C 92.113 226.930,96.297 237.857,107.325 239.242 C 110.382 239.626,111.162 240.112,112.479 242.456 C 113.664 244.563,115.024 245.014,119.930 244.927 C 128.730 244.770,130.480 238.172,123.623 231.000 C 121.634 228.919,121.200 228.016,121.200 225.955 C 121.200 225.021,120.987 223.668,120.727 222.948 C 120.091 221.190,120.703 219.912,122.644 218.947 C 126.607 216.979,127.409 205.009,123.657 203.818 C 121.312 203.074,118.790 193.370,120.498 191.662 C 121.451 190.709,121.408 182.538,120.437 180.085 C 119.394 177.450,119.387 176.385,120.400 174.400 C 122.193 170.885,121.316 164.988,118.760 163.375 L 117.216 162.400 103.489 162.400 L 89.762 162.400 88.181 164.019 M115.453 167.644 C 116.112 168.191,115.773 169.986,114.876 170.700 C 114.071 171.340,94.755 171.418,93.574 170.786 C 92.742 170.341,92.481 168.080,93.180 167.380 C 93.736 166.823,114.764 167.072,115.453 167.644 M111.930 176.972 C 115.622 178.549,116.992 184.852,114.833 190.321 C 113.967 192.514,113.996 193.340,115.034 196.108 C 115.816 198.191,115.801 204.781,115.013 205.824 C 114.254 206.827,114.243 208.439,114.987 209.424 C 115.891 210.619,115.779 214.701,114.799 216.310 C 113.791 217.963,113.795 218.614,114.825 219.922 C 115.542 220.834,115.637 221.450,115.551 224.656 C 115.446 228.601,115.711 229.340,117.381 229.760 C 118.771 230.108,121.668 233.900,121.519 235.176 C 121.276 237.262,117.705 236.876,115.988 234.579 C 114.265 232.273,113.202 231.711,109.604 231.201 C 103.847 230.384,102.015 228.792,102.007 224.600 C 102.002 221.665,102.865 220.073,105.286 218.549 C 111.109 214.883,112.093 210.842,107.336 210.132 C 103.976 209.631,104.284 205.234,107.682 205.187 C 109.757 205.159,110.982 202.375,110.234 199.391 C 109.984 198.396,109.872 198.352,108.284 198.623 C 103.368 199.462,100.708 197.550,100.708 193.177 C 100.708 188.887,102.805 186.938,107.256 187.092 C 110.186 187.193,110.382 187.008,110.395 184.126 C 110.410 180.620,110.033 180.474,100.206 180.161 C 93.172 179.937,93.032 179.899,92.552 178.095 C 92.009 176.056,92.633 175.920,101.777 176.083 C 108.852 176.208,110.477 176.351,111.930 176.972 M97.000 190.800 C 97.000 191.093,96.775 191.408,96.500 191.500 C 96.203 191.599,96.000 191.316,96.000 190.800 C 96.000 190.284,96.203 190.001,96.500 190.100 C 96.775 190.192,97.000 190.507,97.000 190.800 M105.700 191.465 C 104.993 191.750,105.079 193.402,105.834 194.028 C 107.081 195.063,108.643 193.057,107.584 191.781 C 107.093 191.189,106.592 191.105,105.700 191.465 M97.129 195.067 C 96.935 196.070,96.000 196.208,96.000 195.233 C 96.000 194.742,96.258 194.400,96.629 194.400 C 97.002 194.400,97.206 194.672,97.129 195.067 M119.354 211.377 C 119.107 212.019,119.046 212.025,118.719 211.441 C 118.287 210.668,118.717 209.757,119.258 210.298 C 119.461 210.501,119.504 210.986,119.354 211.377 M106.814 222.774 C 105.701 224.854,106.884 226.695,108.995 226.165 C 110.203 225.862,110.699 224.373,110.059 222.971 C 109.495 221.732,107.438 221.607,106.814 222.774 M99.676 248.400 L 90.352 248.600 88.476 250.508 C 85.463 253.571,84.380 254.377,82.639 254.849 C 81.738 255.093,80.301 255.550,79.447 255.864 C 78.593 256.179,75.713 256.715,73.047 257.056 C 70.381 257.398,67.390 257.795,66.400 257.939 L 64.600 258.200 64.659 260.200 C 64.691 261.300,64.912 262.695,65.149 263.300 L 65.580 264.400 105.090 264.394 C 127.972 264.390,144.841 264.235,145.172 264.026 C 145.840 263.603,146.231 259.288,145.676 258.471 C 145.157 257.706,142.713 257.250,136.907 256.832 C 128.204 256.205,123.960 254.696,120.128 250.864 L 117.758 248.494 113.379 248.347 C 110.971 248.266,104.804 248.290,99.676 248.400 M287.471 305.614 C 272.404 307.975,268.788 330.502,282.370 337.385 C 292.139 342.335,304.570 337.540,307.289 327.772 C 311.110 314.051,301.585 303.402,287.471 305.614 M109.900 305.863 C 109.085 306.091,109.044 307.217,109.149 326.387 C 109.221 339.507,109.077 338.892,112.043 338.723 L 114.200 338.600 114.400 332.000 C 114.708 321.834,115.486 321.810,122.200 331.760 C 127.189 339.153,126.867 338.856,129.751 338.718 C 133.406 338.542,133.160 337.904,125.500 327.707 C 124.235 326.023,123.200 324.500,123.200 324.323 C 123.200 323.812,124.748 322.400,125.307 322.400 C 125.586 322.400,126.741 321.589,127.874 320.598 C 132.825 316.266,131.092 308.656,124.702 306.673 C 122.459 305.978,111.616 305.384,109.900 305.863 M199.200 305.888 C 198.650 305.987,198.073 306.188,197.919 306.335 C 197.377 306.850,197.457 337.546,198.002 338.202 C 198.936 339.328,210.897 339.040,214.718 337.800 C 232.720 331.959,232.776 310.686,214.800 306.414 C 211.547 305.640,202.315 305.330,199.200 305.888 M249.095 306.069 C 248.438 306.563,248.397 307.711,248.495 322.600 L 248.600 338.600 251.052 338.718 L 253.504 338.836 253.708 337.518 C 253.988 335.715,253.857 306.524,253.568 306.235 C 253.011 305.678,249.774 305.557,249.095 306.069 M160.690 306.700 C 160.342 307.085,158.948 310.010,157.594 313.200 C 156.240 316.390,154.967 319.171,154.766 319.380 C 154.565 319.589,154.400 320.025,154.400 320.348 C 154.400 320.672,153.872 322.121,153.227 323.568 C 152.582 325.016,151.313 328.000,150.408 330.200 C 149.502 332.400,148.414 334.895,147.990 335.744 C 146.847 338.031,147.405 338.800,150.204 338.800 L 152.380 338.800 153.175 337.054 C 153.613 336.093,154.361 334.248,154.839 332.954 C 156.146 329.409,155.670 329.600,163.174 329.600 L 169.850 329.600 170.725 330.784 C 171.206 331.435,171.600 332.184,171.600 332.450 C 171.600 332.715,172.227 334.252,172.993 335.866 L 174.386 338.800 176.769 338.800 C 180.219 338.800,180.159 338.332,175.333 327.650 C 174.600 326.028,174.000 324.553,174.000 324.374 C 174.000 324.194,173.300 322.552,172.444 320.724 C 171.589 318.896,170.391 316.140,169.783 314.600 C 169.174 313.060,168.085 310.495,167.361 308.900 L 166.046 306.000 163.685 306.000 C 161.944 306.000,161.158 306.184,160.690 306.700 M296.455 310.550 C 300.964 312.482,303.053 318.321,301.942 325.884 C 300.582 335.141,289.325 338.311,282.629 331.323 C 278.552 327.068,279.015 316.517,283.462 312.328 C 286.245 309.707,292.494 308.852,296.455 310.550 M121.749 310.644 C 126.693 312.329,125.871 317.943,120.434 319.622 C 115.261 321.220,114.415 320.554,114.405 314.874 C 114.397 309.783,116.190 308.750,121.749 310.644 M214.677 310.953 C 224.723 314.168,224.933 328.514,215.000 333.054 C 212.059 334.398,205.844 335.222,204.222 334.483 L 203.200 334.017 203.200 322.641 C 203.200 316.385,203.316 310.962,203.459 310.591 C 203.800 309.702,211.549 309.951,214.677 310.953 M165.232 316.732 C 165.726 317.979,166.249 319.180,166.393 319.400 C 166.939 320.231,167.678 323.098,167.538 323.834 C 167.407 324.513,166.968 324.613,163.655 324.716 C 158.167 324.885,158.115 324.776,160.693 318.400 C 161.450 316.530,162.237 314.571,162.444 314.047 C 162.977 312.698,164.038 313.720,165.232 316.732 " stroke="none" fill="#faf4f4" fill-rule="evenodd"></path><path id="path1" d="M182.400 0.371 C 182.400 0.575,181.365 0.850,180.100 0.980 C 175.068 1.501,166.807 2.723,161.304 3.760 C 155.776 4.801,139.222 9.098,137.800 9.860 C 137.360 10.096,136.460 10.413,135.800 10.565 C 131.627 11.522,110.897 20.270,106.800 22.803 C 106.470 23.007,104.850 23.931,103.200 24.856 C 98.935 27.247,93.138 30.738,92.415 31.351 C 92.077 31.638,90.361 32.756,88.602 33.836 C 86.843 34.916,85.133 36.036,84.802 36.326 C 84.471 36.615,82.220 38.300,79.800 40.072 C 77.380 41.844,75.040 43.630,74.600 44.043 C 74.160 44.455,72.000 46.275,69.800 48.086 C 64.479 52.469,53.181 63.775,47.839 70.065 C 43.374 75.322,37.200 83.330,37.200 83.865 C 37.200 84.034,36.842 84.538,36.403 84.986 C 35.438 85.972,30.943 92.732,28.889 96.286 C 28.070 97.703,26.178 100.963,24.684 103.531 C 23.190 106.099,21.858 108.540,21.723 108.955 C 21.588 109.371,21.034 110.541,20.491 111.555 C 17.798 116.588,10.400 134.960,10.400 136.616 C 10.400 136.901,10.143 137.645,9.828 138.268 C 8.270 141.352,3.349 161.829,2.587 168.400 C 2.446 169.610,2.087 172.130,1.789 174.000 C 1.491 175.870,1.128 178.705,0.983 180.300 C 0.838 181.895,0.557 183.200,0.359 183.200 C 0.153 183.200,0.000 189.923,0.000 199.000 C 0.000 207.854,0.155 214.800,0.353 214.800 C 0.547 214.800,0.826 216.375,0.972 218.300 C 1.119 220.225,1.490 223.240,1.796 225.000 C 2.102 226.760,2.460 229.280,2.592 230.600 C 2.724 231.920,2.992 233.630,3.188 234.400 C 3.383 235.170,4.023 238.230,4.608 241.200 C 5.194 244.170,6.008 247.770,6.416 249.200 C 9.075 258.503,9.630 260.368,10.166 261.800 C 10.495 262.680,10.773 263.769,10.782 264.220 C 10.792 264.671,10.971 265.211,11.181 265.421 C 11.546 265.786,13.477 270.775,14.599 274.251 C 14.893 275.160,15.315 276.240,15.538 276.651 C 15.760 277.063,16.334 278.300,16.812 279.400 C 17.290 280.500,18.309 282.660,19.076 284.200 C 19.844 285.740,20.605 287.270,20.767 287.600 C 22.467 291.047,25.725 297.300,26.393 298.400 C 26.594 298.730,27.938 300.919,29.379 303.264 C 30.821 305.608,32.000 307.723,32.000 307.964 C 32.000 308.204,32.163 308.400,32.362 308.400 C 32.561 308.400,33.224 309.255,33.835 310.300 C 34.446 311.345,36.218 313.887,37.773 315.948 C 39.328 318.010,41.230 320.545,42.000 321.582 C 50.063 332.439,62.829 345.290,76.400 356.212 C 79.590 358.779,82.763 361.125,83.451 361.425 C 84.140 361.725,84.811 362.251,84.943 362.595 C 85.074 362.938,85.501 363.351,85.891 363.512 C 86.281 363.674,88.490 365.052,90.800 366.576 C 93.110 368.099,95.657 369.718,96.459 370.173 C 97.262 370.628,99.332 371.802,101.059 372.783 C 105.698 375.416,106.284 375.731,110.000 377.586 C 112.773 378.971,118.559 381.654,123.000 383.615 C 124.703 384.367,131.150 386.755,134.200 387.763 C 135.960 388.345,137.713 388.996,138.095 389.210 C 138.477 389.425,139.038 389.600,139.342 389.600 C 139.647 389.600,141.044 389.980,142.448 390.444 C 143.852 390.908,145.990 391.532,147.200 391.830 C 148.410 392.129,150.570 392.660,152.000 393.011 C 153.430 393.362,155.590 393.909,156.800 394.227 C 158.955 394.794,161.589 395.264,166.800 396.011 C 168.230 396.216,170.030 396.564,170.800 396.784 C 178.954 399.120,219.848 399.122,227.400 396.787 C 228.060 396.583,230.040 396.242,231.800 396.029 C 236.023 395.517,241.456 394.501,242.314 394.062 C 242.691 393.869,243.873 393.597,244.940 393.458 C 246.008 393.318,247.718 392.944,248.740 392.626 C 249.763 392.308,252.130 391.648,254.000 391.160 C 258.809 389.903,264.708 387.956,270.149 385.828 C 272.721 384.823,275.090 384.000,275.413 384.000 C 275.736 384.000,276.000 383.823,276.000 383.608 C 276.000 383.392,276.495 383.097,277.100 382.953 C 278.442 382.633,281.855 381.076,288.200 377.889 C 290.840 376.564,293.996 374.986,295.214 374.384 C 296.431 373.782,297.668 372.999,297.963 372.645 C 298.257 372.290,298.705 372.000,298.957 372.000 C 299.510 372.000,307.535 367.108,308.434 366.224 C 308.782 365.881,309.241 365.600,309.454 365.600 C 309.666 365.600,311.001 364.748,312.420 363.706 C 313.839 362.664,315.845 361.269,316.877 360.606 C 318.936 359.283,327.262 352.563,330.761 349.400 C 339.349 341.637,343.162 337.801,350.048 330.000 C 353.516 326.071,360.551 317.259,361.183 316.053 C 361.456 315.532,362.437 314.092,363.364 312.853 C 366.201 309.062,367.261 306.691,366.257 306.382 C 366.226 306.373,363.950 306.014,361.200 305.586 C 355.518 304.702,341.008 302.136,338.600 301.590 C 337.720 301.391,335.650 300.945,334.000 300.601 C 330.366 299.841,328.394 299.346,325.940 298.578 C 324.918 298.258,323.208 297.885,322.140 297.750 C 321.073 297.615,319.840 297.283,319.400 297.012 C 318.960 296.742,317.880 296.393,317.000 296.236 C 315.338 295.940,300.055 291.499,297.600 290.598 C 296.830 290.316,292.960 288.963,289.000 287.592 C 285.040 286.221,278.884 283.952,275.319 282.550 C 271.754 281.147,268.697 280.000,268.525 280.000 C 268.352 280.000,267.219 279.524,266.006 278.943 C 263.315 277.653,261.290 276.755,258.400 275.572 C 252.747 273.258,247.707 270.892,235.400 264.775 C 227.901 261.048,223.438 259.098,219.400 257.786 C 216.320 256.784,213.487 255.793,213.105 255.583 C 212.723 255.372,212.221 255.200,211.989 255.200 C 210.969 255.200,201.373 250.499,195.800 247.269 C 182.361 239.481,168.565 225.821,163.009 214.800 C 162.621 214.030,162.087 213.130,161.823 212.800 C 160.245 210.828,156.479 201.209,153.602 191.800 C 153.400 191.140,153.045 189.395,152.813 187.922 C 152.581 186.449,152.294 184.990,152.175 184.679 C 150.910 181.381,151.048 159.563,152.379 152.600 C 154.011 144.062,156.256 136.609,159.025 130.540 C 159.341 129.846,159.600 129.013,159.600 128.689 C 159.600 128.364,159.870 127.874,160.200 127.600 C 160.530 127.326,160.800 126.898,160.800 126.648 C 160.800 125.801,166.434 116.662,169.713 112.190 C 171.832 109.300,179.951 101.000,183.600 97.994 C 186.994 95.198,191.898 91.600,192.316 91.600 C 192.523 91.600,193.121 91.265,193.646 90.855 C 195.472 89.430,203.828 85.338,208.000 83.825 C 210.310 82.987,212.560 82.157,213.000 81.981 C 213.776 81.669,215.959 81.161,223.361 79.567 C 239.265 76.142,264.743 78.173,276.600 83.811 C 277.700 84.334,279.140 84.884,279.800 85.033 C 280.460 85.183,281.990 85.871,283.200 86.563 C 284.410 87.256,286.030 88.155,286.800 88.562 C 291.966 91.294,297.287 95.354,303.356 101.194 C 308.641 106.279,308.691 106.333,310.120 108.400 C 311.329 110.150,314.702 114.714,316.373 116.863 C 316.828 117.448,317.200 118.191,317.200 118.514 C 317.200 118.838,317.452 119.311,317.760 119.566 C 318.067 119.822,319.156 121.689,320.180 123.715 C 321.203 125.742,322.195 127.670,322.384 128.000 C 322.897 128.895,325.215 135.199,325.602 136.749 C 325.787 137.491,326.132 138.292,326.369 138.529 C 326.606 138.766,326.802 139.329,326.805 139.780 C 326.808 140.231,327.168 141.741,327.605 143.136 C 328.042 144.530,328.400 146.175,328.400 146.790 C 328.400 147.405,328.669 148.424,328.998 149.054 C 329.326 149.684,329.596 150.960,329.598 151.888 C 329.599 152.816,329.887 155.510,330.239 157.874 C 331.310 165.088,330.422 180.757,328.612 186.564 C 328.275 187.644,328.000 189.118,328.000 189.840 C 328.000 190.562,327.842 191.250,327.649 191.370 C 327.456 191.489,327.086 192.429,326.827 193.459 C 326.102 196.339,322.934 204.211,320.966 208.022 C 319.995 209.903,319.200 211.631,319.200 211.860 C 319.200 212.089,318.840 212.602,318.400 213.000 C 317.960 213.398,317.600 213.906,317.600 214.128 C 317.600 214.644,312.491 222.329,311.413 223.434 C 310.966 223.893,310.150 224.859,309.600 225.581 C 303.421 233.695,291.552 243.738,280.400 250.287 C 277.609 251.927,267.355 257.094,265.526 257.783 C 263.718 258.464,262.836 259.430,263.487 260.015 C 263.880 260.369,277.499 265.093,280.200 265.813 C 281.300 266.106,283.370 266.726,284.800 267.191 C 289.940 268.861,304.653 273.118,308.800 274.134 C 314.467 275.524,318.319 276.503,320.800 277.185 C 325.249 278.409,338.439 281.338,341.800 281.849 C 343.798 282.152,349.684 283.211,351.600 283.611 C 352.590 283.818,355.020 284.178,357.000 284.411 C 358.980 284.644,361.140 284.996,361.800 285.193 C 362.460 285.391,364.980 285.751,367.400 285.994 C 369.820 286.236,373.059 286.605,374.597 286.814 C 378.197 287.301,378.433 287.203,379.677 284.699 C 381.676 280.677,382.800 278.119,382.800 277.593 C 382.800 277.301,383.035 276.779,383.322 276.431 C 383.608 276.084,384.266 274.540,384.783 273.000 C 385.299 271.460,385.854 270.020,386.016 269.800 C 386.523 269.108,390.665 256.338,391.400 253.200 C 391.787 251.550,392.340 249.480,392.630 248.600 C 392.919 247.720,393.268 246.280,393.404 245.400 C 393.540 244.520,393.888 243.080,394.178 242.200 C 394.468 241.320,395.012 238.710,395.388 236.400 C 395.763 234.090,396.316 230.850,396.618 229.200 C 396.920 227.550,397.360 224.040,397.597 221.400 C 397.833 218.760,398.193 215.250,398.396 213.600 C 398.846 209.938,398.839 190.908,398.386 185.400 C 397.513 174.802,397.183 171.704,396.804 170.563 C 396.579 169.883,396.223 168.083,396.013 166.563 C 395.402 162.122,394.494 157.184,393.815 154.600 C 393.468 153.280,392.901 151.120,392.554 149.800 C 391.529 145.902,389.534 139.063,389.169 138.200 C 388.983 137.760,388.186 135.420,387.398 133.000 C 386.610 130.580,385.722 128.060,385.424 127.400 C 385.126 126.740,384.404 124.940,383.821 123.400 C 381.881 118.284,377.292 108.911,373.301 101.913 C 371.706 99.115,370.400 96.735,370.400 96.625 C 370.400 96.515,369.704 95.384,368.853 94.113 C 368.002 92.841,366.282 90.270,365.032 88.400 C 358.473 78.593,349.010 66.967,341.758 59.806 C 336.138 54.258,326.995 45.859,325.484 44.858 C 324.939 44.496,323.474 43.390,322.230 42.400 C 317.762 38.845,309.790 33.200,309.239 33.200 C 308.998 33.200,308.800 33.011,308.800 32.781 C 308.800 32.550,308.305 32.143,307.700 31.876 C 307.095 31.609,305.031 30.356,303.114 29.091 C 301.197 27.826,299.217 26.610,298.714 26.389 C 298.211 26.168,296.990 25.526,296.000 24.963 C 292.133 22.764,288.917 21.200,288.261 21.200 C 287.884 21.200,287.471 20.930,287.345 20.600 C 287.218 20.270,286.953 20.000,286.756 20.000 C 286.560 20.000,284.509 19.100,282.200 18.000 C 279.891 16.900,277.753 16.000,277.450 16.000 C 277.146 16.000,276.690 15.750,276.436 15.444 C 276.182 15.137,275.485 14.797,274.887 14.688 C 274.289 14.579,271.910 13.738,269.600 12.819 C 267.290 11.901,264.590 10.905,263.600 10.607 C 262.610 10.309,260.990 9.798,260.000 9.472 C 251.421 6.649,238.385 3.596,230.600 2.586 C 228.180 2.272,225.300 1.843,224.200 1.632 C 223.100 1.422,220.805 1.133,219.100 0.991 C 217.395 0.848,216.000 0.567,216.000 0.366 C 216.000 0.151,209.089 0.000,199.200 0.000 C 189.135 0.000,182.400 0.149,182.400 0.371 M142.611 82.800 C 144.540 82.800,145.200 83.823,145.200 86.811 C 145.200 89.078,144.782 89.266,138.117 89.999 C 128.656 91.039,123.071 93.548,120.517 97.907 C 118.780 100.870,119.105 100.800,107.011 100.797 C 92.101 100.792,92.225 100.812,90.877 98.183 C 89.867 96.214,86.853 93.200,85.894 93.200 C 85.657 93.200,85.179 92.951,84.831 92.647 C 83.974 91.896,75.700 90.473,69.660 90.036 C 63.795 89.612,63.931 89.711,64.081 85.961 L 64.200 83.000 101.147 82.920 C 121.467 82.876,138.206 82.727,138.344 82.589 C 138.482 82.452,139.113 82.443,139.747 82.569 C 140.381 82.696,141.670 82.800,142.611 82.800 M228.600 89.998 C 226.180 90.434,223.787 90.972,223.281 91.195 C 222.776 91.418,222.083 91.600,221.742 91.600 C 221.400 91.600,220.554 91.854,219.860 92.165 C 219.167 92.476,217.430 93.235,216.000 93.851 C 212.958 95.163,209.102 97.330,207.400 98.685 C 199.261 105.163,193.498 111.055,191.045 115.405 C 190.674 116.062,189.843 117.410,189.199 118.400 C 187.435 121.108,182.526 131.203,182.196 132.800 C 182.038 133.570,181.744 134.404,181.543 134.654 C 180.865 135.499,178.725 143.823,177.496 150.400 C 176.511 155.673,176.188 178.966,177.078 180.600 C 177.318 181.040,177.810 183.433,178.173 185.917 C 178.536 188.401,178.989 190.831,179.180 191.317 C 179.371 191.803,179.826 193.280,180.191 194.600 C 181.176 198.160,183.053 203.335,184.834 207.400 C 185.702 209.380,186.409 211.104,186.406 211.232 C 186.400 211.469,189.210 216.440,190.572 218.600 C 192.807 222.147,193.660 223.341,196.568 227.000 C 201.194 232.820,202.146 233.830,206.586 237.617 C 210.009 240.536,215.935 244.800,216.569 244.800 C 216.677 244.800,217.717 245.362,218.881 246.048 C 236.533 256.456,261.107 253.747,277.640 239.570 C 285.090 233.182,296.400 217.758,296.400 213.987 C 296.400 213.699,296.640 213.179,296.934 212.831 C 299.978 209.228,303.906 190.381,304.278 177.590 C 304.549 168.279,302.930 154.084,300.995 148.800 C 300.713 148.030,300.116 146.140,299.668 144.600 C 298.256 139.741,296.965 136.306,295.256 132.856 C 294.345 131.016,293.600 129.373,293.600 129.204 C 293.600 128.853,291.530 125.302,289.311 121.848 C 288.480 120.555,287.530 119.028,287.200 118.455 C 286.870 117.882,286.410 117.230,286.178 117.007 C 285.945 116.783,284.685 115.262,283.378 113.626 C 275.970 104.361,267.264 97.740,256.200 92.957 C 249.087 89.882,236.656 88.549,228.600 89.998 M118.413 106.007 C 120.763 107.206,121.312 108.817,121.102 113.896 L 120.932 117.992 122.575 118.788 C 125.638 120.271,126.889 125.138,124.998 128.217 C 123.821 130.132,123.759 131.185,124.749 132.446 C 127.273 135.662,128.896 147.227,127.039 148.767 C 126.731 149.023,126.360 149.703,126.216 150.278 C 123.752 160.097,101.600 162.066,101.600 152.466 C 101.600 151.798,101.430 150.806,101.223 150.260 C 100.858 149.300,100.556 149.129,98.381 148.650 C 93.938 147.671,94.786 138.399,99.465 136.795 C 101.019 136.262,101.449 135.176,101.683 131.200 C 101.730 130.395,101.341 129.955,99.400 128.618 C 98.190 127.784,97.196 126.899,97.192 126.651 C 97.107 121.881,96.109 120.003,93.651 119.990 C 88.133 119.962,86.427 118.353,86.411 113.160 C 86.397 108.902,86.884 107.444,88.738 106.184 L 90.186 105.200 103.509 105.200 C 116.080 105.200,116.921 105.246,118.413 106.007 M93.100 112.028 C 91.815 112.783,92.173 115.043,93.660 115.561 C 95.149 116.080,114.323 116.164,115.126 115.654 C 115.466 115.439,115.607 114.698,115.526 113.560 L 115.400 111.800 104.600 111.709 C 97.755 111.651,93.544 111.768,93.100 112.028 M103.069 121.280 C 102.550 121.674,102.375 122.237,102.469 123.218 L 102.600 124.600 105.600 124.920 C 110.450 125.437,112.659 131.085,108.695 132.830 C 105.445 134.261,106.911 137.200,110.875 137.200 C 115.237 137.200,116.800 138.793,116.800 143.237 C 116.800 147.473,115.465 148.800,111.204 148.800 C 107.788 148.800,107.200 149.130,107.200 151.049 C 107.200 153.542,114.636 154.073,118.037 151.823 C 124.131 147.790,123.606 137.993,117.046 133.349 C 115.949 132.572,115.881 132.344,115.645 128.697 C 115.361 124.307,114.774 123.309,111.649 121.904 C 109.370 120.880,104.101 120.497,103.069 121.280 M101.600 143.000 C 101.600 143.333,101.956 143.600,102.400 143.600 C 102.844 143.600,103.200 143.333,103.200 143.000 C 103.200 142.667,102.844 142.400,102.400 142.400 C 101.956 142.400,101.600 142.667,101.600 143.000 M109.400 142.800 C 109.259 143.028,109.604 143.200,110.200 143.200 C 110.796 143.200,111.141 143.028,111.000 142.800 C 110.864 142.580,110.504 142.400,110.200 142.400 C 109.896 142.400,109.536 142.580,109.400 142.800 M118.760 163.375 C 121.316 164.988,122.193 170.885,120.400 174.400 C 119.387 176.385,119.394 177.450,120.437 180.085 C 121.408 182.538,121.451 190.709,120.498 191.662 C 118.790 193.370,121.312 203.074,123.657 203.818 C 127.409 205.009,126.607 216.979,122.644 218.947 C 120.703 219.912,120.091 221.190,120.727 222.948 C 120.987 223.668,121.200 225.021,121.200 225.955 C 121.200 228.016,121.634 228.919,123.623 231.000 C 130.480 238.172,128.730 244.770,119.930 244.927 C 115.024 245.014,113.664 244.563,112.479 242.456 C 111.162 240.112,110.382 239.626,107.325 239.242 C 96.297 237.857,92.113 226.930,99.460 218.699 C 100.986 216.989,101.071 216.471,100.120 214.680 C 99.586 213.674,99.454 212.462,99.502 209.020 C 99.576 203.821,99.526 203.740,96.075 203.378 C 92.340 202.987,90.532 202.003,90.053 200.100 C 89.380 197.422,89.191 193.849,89.604 191.600 C 90.589 186.235,90.627 186.648,89.068 185.809 C 86.709 184.538,86.600 184.032,86.600 174.358 L 86.600 165.638 88.181 164.019 L 89.762 162.400 103.489 162.400 L 117.216 162.400 118.760 163.375 M93.180 167.380 C 92.481 168.080,92.742 170.341,93.574 170.786 C 94.755 171.418,114.071 171.340,114.876 170.700 C 115.773 169.986,116.112 168.191,115.453 167.644 C 114.764 167.072,93.736 166.823,93.180 167.380 M92.832 176.561 C 92.329 177.167,92.451 178.480,93.103 179.472 C 93.311 179.789,95.643 180.015,100.206 180.161 C 110.033 180.474,110.410 180.620,110.395 184.126 C 110.382 187.008,110.186 187.193,107.256 187.092 C 102.805 186.938,100.708 188.887,100.708 193.177 C 100.708 197.550,103.368 199.462,108.284 198.623 C 109.872 198.352,109.984 198.396,110.234 199.391 C 110.982 202.375,109.757 205.159,107.682 205.187 C 104.284 205.234,103.976 209.631,107.336 210.132 C 112.093 210.842,111.109 214.883,105.286 218.549 C 102.865 220.073,102.002 221.665,102.007 224.600 C 102.015 228.792,103.847 230.384,109.604 231.201 C 113.202 231.711,114.265 232.273,115.988 234.579 C 117.705 236.876,121.276 237.262,121.519 235.176 C 121.668 233.900,118.771 230.108,117.381 229.760 C 115.711 229.340,115.446 228.601,115.551 224.656 C 115.637 221.450,115.542 220.834,114.825 219.922 C 113.795 218.614,113.791 217.963,114.799 216.310 C 115.779 214.701,115.891 210.619,114.987 209.424 C 114.243 208.439,114.254 206.827,115.013 205.824 C 115.801 204.781,115.816 198.191,115.034 196.108 C 113.996 193.340,113.967 192.514,114.833 190.321 C 116.992 184.852,115.622 178.549,111.930 176.972 C 109.466 175.919,93.647 175.579,92.832 176.561 M96.000 190.800 C 96.000 191.316,96.203 191.599,96.500 191.500 C 96.775 191.408,97.000 191.093,97.000 190.800 C 97.000 190.507,96.775 190.192,96.500 190.100 C 96.203 190.001,96.000 190.284,96.000 190.800 M107.584 191.781 C 108.643 193.057,107.081 195.063,105.834 194.028 C 105.079 193.402,104.993 191.750,105.700 191.465 C 106.592 191.105,107.093 191.189,107.584 191.781 M96.000 195.233 C 96.000 196.208,96.935 196.070,97.129 195.067 C 97.206 194.672,97.002 194.400,96.629 194.400 C 96.258 194.400,96.000 194.742,96.000 195.233 M118.623 210.362 C 118.477 210.599,118.520 211.085,118.719 211.441 C 119.046 212.025,119.107 212.019,119.354 211.377 C 119.666 210.562,119.039 209.690,118.623 210.362 M110.059 222.971 C 110.699 224.373,110.203 225.862,108.995 226.165 C 106.884 226.695,105.701 224.854,106.814 222.774 C 107.438 221.607,109.495 221.732,110.059 222.971 M120.128 250.864 C 123.960 254.696,128.204 256.205,136.907 256.832 C 142.713 257.250,145.157 257.706,145.676 258.471 C 146.231 259.288,145.840 263.603,145.172 264.026 C 144.841 264.235,127.972 264.390,105.090 264.394 L 65.580 264.400 65.149 263.300 C 64.912 262.695,64.691 261.300,64.659 260.200 L 64.600 258.200 66.400 257.939 C 67.390 257.795,70.381 257.398,73.047 257.056 C 75.713 256.715,78.593 256.179,79.447 255.864 C 80.301 255.550,81.738 255.093,82.639 254.849 C 84.380 254.377,85.463 253.571,88.476 250.508 L 90.352 248.600 99.676 248.400 C 104.804 248.290,110.971 248.266,113.379 248.347 L 117.758 248.494 120.128 250.864 M298.008 306.403 C 313.799 312.627,310.370 337.658,293.540 339.022 C 281.617 339.989,274.000 333.578,274.000 322.574 C 274.000 309.937,286.172 301.738,298.008 306.403 M124.702 306.673 C 131.092 308.656,132.825 316.266,127.874 320.598 C 126.741 321.589,125.586 322.400,125.307 322.400 C 124.748 322.400,123.200 323.812,123.200 324.323 C 123.200 324.500,124.235 326.023,125.500 327.707 C 133.160 337.904,133.406 338.542,129.751 338.718 C 126.867 338.856,127.189 339.153,122.200 331.760 C 115.486 321.810,114.708 321.834,114.400 332.000 L 114.200 338.600 112.043 338.723 C 109.077 338.892,109.221 339.507,109.149 326.387 C 109.044 307.217,109.085 306.091,109.900 305.863 C 111.616 305.384,122.459 305.978,124.702 306.673 M214.800 306.414 C 229.816 309.983,233.116 327.450,220.257 335.300 C 214.982 338.520,199.898 340.487,198.002 338.202 C 197.457 337.546,197.377 306.850,197.919 306.335 C 198.982 305.324,210.441 305.378,214.800 306.414 M253.568 306.235 C 253.857 306.524,253.988 335.715,253.708 337.518 L 253.504 338.836 251.052 338.718 L 248.600 338.600 248.495 322.600 C 248.375 304.421,248.209 305.328,251.568 305.770 C 252.541 305.899,253.441 306.108,253.568 306.235 M167.361 308.900 C 168.085 310.495,169.174 313.060,169.783 314.600 C 170.391 316.140,171.589 318.896,172.444 320.724 C 173.300 322.552,174.000 324.194,174.000 324.374 C 174.000 324.553,174.600 326.028,175.333 327.650 C 180.159 338.332,180.219 338.800,176.769 338.800 L 174.386 338.800 172.993 335.866 C 172.227 334.252,171.600 332.715,171.600 332.450 C 171.600 332.184,171.206 331.435,170.725 330.784 L 169.850 329.600 163.174 329.600 C 155.670 329.600,156.146 329.409,154.839 332.954 C 154.361 334.248,153.613 336.093,153.175 337.054 L 152.380 338.800 150.204 338.800 C 147.405 338.800,146.847 338.031,147.990 335.744 C 148.414 334.895,149.502 332.400,150.408 330.200 C 151.313 328.000,152.582 325.016,153.227 323.568 C 153.872 322.121,154.400 320.672,154.400 320.348 C 154.400 320.025,154.565 319.589,154.766 319.380 C 154.967 319.171,156.240 316.390,157.594 313.200 C 160.637 306.032,160.665 306.000,163.685 306.000 L 166.046 306.000 167.361 308.900 M286.600 310.423 C 281.055 312.733,278.665 319.335,280.417 327.505 C 281.865 334.258,293.419 337.578,298.337 332.654 C 301.432 329.555,302.400 326.791,302.400 321.056 C 302.400 312.732,294.240 307.240,286.600 310.423 M114.814 310.774 C 114.374 311.596,114.252 317.606,114.645 319.071 C 115.144 320.933,121.851 320.154,123.792 318.008 C 124.805 316.890,125.086 313.497,124.270 312.251 C 122.935 310.213,115.718 309.086,114.814 310.774 M203.459 310.591 C 203.316 310.962,203.200 316.385,203.200 322.641 L 203.200 334.017 204.222 334.483 C 205.844 335.222,212.059 334.398,215.000 333.054 C 224.933 328.514,224.723 314.168,214.677 310.953 C 211.549 309.951,203.800 309.702,203.459 310.591 M162.444 314.047 C 162.237 314.571,161.450 316.530,160.693 318.400 C 158.115 324.776,158.167 324.885,163.655 324.716 C 166.968 324.613,167.407 324.513,167.538 323.834 C 167.678 323.098,166.939 320.231,166.393 319.400 C 166.249 319.180,165.726 317.979,165.232 316.732 C 164.038 313.720,162.977 312.698,162.444 314.047 " stroke="none" fill="#e3232c" fill-rule="evenodd"></path></g></svg>