<svg id="svg" version="1.1" xmlns="http://www.w3.org/2000/svg" xmlns:xlink="http://www.w3.org/1999/xlink" width="400" height="400" viewBox="0, 0, 400,400"><g id="svgg"><path id="path0" d="M0.000 200.000 L 0.000 400.000 200.000 400.000 L 400.000 400.000 400.000 200.000 L 400.000 0.000 200.000 0.000 L 0.000 0.000 0.000 200.000 M135.337 44.130 C 143.286 48.059,147.260 56.416,148.992 72.849 C 151.752 99.024,144.317 119.906,131.000 123.385 C 118.732 126.591,109.545 119.557,105.420 103.800 C 102.239 91.650,103.374 67.520,107.617 57.093 C 112.793 44.374,124.630 38.838,135.337 44.130 M264.338 43.051 C 277.578 46.863,283.123 62.353,278.199 81.766 C 275.296 93.210,269.112 106.179,261.037 117.761 C 257.273 123.160,257.193 123.208,252.046 123.160 C 245.312 123.097,245.452 123.257,248.396 118.995 C 255.518 108.688,260.351 100.720,262.825 95.211 C 264.924 90.538,264.955 89.894,263.064 90.317 C 262.369 90.473,259.550 90.591,256.800 90.580 L 251.800 90.560 248.300 88.906 C 230.253 80.378,233.328 48.325,252.704 42.993 C 255.454 42.237,261.616 42.267,264.338 43.051 M311.400 44.800 L 311.400 47.000 309.000 47.115 C 304.285 47.341,303.936 51.779,308.610 52.074 L 310.600 52.200 310.726 53.954 C 310.880 56.104,310.572 56.442,308.437 56.472 C 305.829 56.508,305.600 56.974,305.600 62.243 L 305.600 66.829 301.700 66.714 L 297.800 66.600 297.694 55.005 C 297.635 48.628,297.676 43.178,297.785 42.895 C 297.937 42.498,299.511 42.406,304.691 42.490 L 311.400 42.600 311.400 44.800 M325.017 46.700 C 326.240 52.600,326.519 52.676,327.428 47.356 C 328.367 41.867,327.725 42.400,333.403 42.400 C 336.240 42.400,338.457 42.569,338.598 42.796 C 338.893 43.275,339.191 65.558,338.911 66.287 C 338.597 67.106,332.161 66.997,331.843 66.167 C 331.709 65.819,331.600 63.209,331.600 60.367 C 331.600 54.565,331.217 53.797,330.470 58.100 C 330.027 60.647,329.681 62.444,328.965 65.919 C 328.789 66.773,328.604 66.829,326.319 66.719 C 323.469 66.581,323.688 66.939,322.565 60.600 C 321.298 53.454,320.835 53.296,320.810 60.000 C 320.783 67.134,320.936 66.866,316.965 66.718 L 313.800 66.600 313.694 55.005 C 313.564 40.810,312.901 42.352,319.076 42.488 L 324.167 42.600 325.017 46.700 M81.394 43.590 C 81.908 44.422,81.610 122.546,81.092 122.875 C 80.111 123.499,72.909 123.252,72.229 122.571 C 71.668 122.011,71.600 118.558,71.600 90.571 C 71.600 68.743,71.471 59.200,71.176 59.200 C 70.943 59.200,69.818 60.070,68.676 61.134 C 64.194 65.310,55.528 72.403,55.174 72.184 C 54.968 72.057,54.800 69.590,54.800 66.703 L 54.800 61.453 56.705 59.626 C 57.753 58.622,62.359 54.515,66.940 50.500 L 75.270 43.200 78.211 43.200 C 79.829 43.200,81.261 43.376,81.394 43.590 M202.219 44.258 C 203.863 46.033,203.717 46.689,199.830 54.944 C 190.557 74.640,182.659 95.004,177.009 113.784 C 173.872 124.209,174.917 122.898,169.582 123.100 C 163.235 123.340,163.163 123.222,165.340 116.152 C 169.830 101.566,179.644 76.859,186.832 62.047 C 188.794 58.003,190.400 54.448,190.400 54.147 C 190.400 53.522,191.040 53.548,173.200 53.460 C 166.490 53.427,160.775 53.254,160.500 53.076 C 159.819 52.635,159.801 44.359,160.480 43.680 C 160.841 43.319,165.969 43.200,181.099 43.200 L 201.238 43.200 202.219 44.258 M125.000 52.000 C 116.738 53.830,112.430 69.272,113.986 91.480 C 115.077 107.041,119.088 114.492,126.362 114.474 C 134.467 114.454,138.352 106.165,139.051 87.400 C 139.948 63.369,134.592 49.876,125.000 52.000 M255.733 52.384 C 245.170 54.900,243.444 75.108,253.347 80.313 C 256.123 81.772,262.462 81.831,266.091 80.432 C 268.779 79.396,268.980 78.945,269.583 72.569 C 270.893 58.719,265.027 50.170,255.733 52.384 M337.920 72.480 C 338.640 73.200,338.582 82.951,337.855 83.555 C 337.461 83.882,331.705 83.979,317.155 83.904 L 297.000 83.800 296.888 78.420 C 296.826 75.461,296.865 72.806,296.975 72.520 C 297.255 71.790,337.191 71.751,337.920 72.480 M337.920 88.880 C 338.904 89.864,338.548 96.749,337.500 97.003 C 337.005 97.123,327.690 97.172,316.800 97.111 L 297.000 97.000 296.884 93.230 C 296.820 91.157,296.860 89.222,296.972 88.930 C 297.255 88.191,337.183 88.143,337.920 88.880 M337.963 102.156 C 338.254 102.506,338.393 103.719,338.320 105.265 L 338.200 107.800 317.500 107.904 L 296.800 108.007 296.800 105.070 C 296.800 103.455,296.911 102.022,297.046 101.887 C 297.633 101.300,337.470 101.562,337.963 102.156 M223.331 109.444 C 225.199 110.674,226.379 113.093,226.391 115.713 C 226.423 122.705,219.288 126.143,214.721 121.336 C 208.602 114.893,216.030 104.633,223.331 109.444 M338.074 118.506 C 338.555 119.264,338.459 120.253,337.855 120.755 C 337.461 121.082,331.705 121.179,317.155 121.104 L 297.000 121.000 297.000 119.600 L 297.000 118.200 316.200 117.981 C 336.895 117.746,337.602 117.763,338.074 118.506 M222.374 141.413 C 260.743 146.163,287.638 177.671,287.751 218.000 C 287.847 252.778,268.320 280.452,232.050 296.937 C 227.866 298.839,227.655 298.649,237.678 302.007 C 277.506 315.350,311.260 322.143,346.918 323.992 C 356.233 324.475,357.442 324.283,361.119 321.741 C 364.450 319.439,366.800 319.639,366.800 322.225 C 366.800 324.552,346.431 340.372,342.001 341.485 C 340.633 341.829,326.411 340.545,318.600 339.372 C 306.620 337.573,304.523 337.218,297.561 335.808 C 291.032 334.487,279.647 331.797,275.600 330.619 C 274.610 330.331,272.090 329.605,270.000 329.007 C 248.594 322.873,225.532 313.663,203.200 302.329 C 198.522 299.955,193.887 297.945,190.600 296.863 C 153.438 284.639,132.203 256.761,132.208 220.200 C 132.213 170.194,172.253 135.208,222.374 141.413 M126.456 145.496 C 126.670 145.710,126.790 146.851,126.723 148.030 L 126.600 150.174 121.400 150.855 C 111.924 152.096,106.980 154.457,104.990 158.693 C 103.974 160.855,104.364 160.787,92.926 160.794 C 81.824 160.800,80.401 160.609,80.399 159.110 C 80.392 155.190,75.492 152.481,66.800 151.594 C 64.270 151.335,61.210 151.006,60.000 150.861 L 57.800 150.599 57.675 148.626 C 57.606 147.541,57.644 146.281,57.758 145.827 L 57.965 145.000 92.015 145.053 C 113.530 145.086,126.209 145.249,126.456 145.496 M200.600 151.191 C 164.984 155.366,143.878 204.253,158.998 247.552 C 176.725 298.316,230.316 308.326,254.990 265.480 C 283.208 216.480,249.414 145.468,200.600 151.191 M105.400 168.000 L 105.400 169.800 92.800 169.800 L 80.200 169.800 80.072 168.462 C 79.822 165.852,79.142 165.978,92.890 166.094 L 105.400 166.200 105.400 168.000 M101.591 175.916 C 104.778 177.521,105.600 178.943,105.600 182.852 L 105.600 185.987 107.501 186.950 C 113.988 190.237,114.173 200.740,107.800 203.951 C 106.042 204.837,105.286 204.960,101.547 204.967 C 96.588 204.977,95.894 204.656,96.080 202.434 L 96.200 201.000 99.522 201.108 C 104.995 201.287,106.400 200.104,106.400 195.320 C 106.400 191.092,104.845 189.844,99.839 190.053 C 96.347 190.199,95.894 189.924,96.073 187.776 C 96.185 186.429,96.354 186.207,97.491 185.914 C 99.152 185.487,99.743 184.343,99.485 182.057 C 99.204 179.567,98.362 178.982,94.597 178.664 C 90.900 178.351,90.800 178.298,90.800 176.643 C 90.800 174.820,90.852 174.799,95.367 174.807 C 98.965 174.813,99.636 174.932,101.591 175.916 M110.159 178.636 C 110.484 179.483,110.121 180.000,109.200 180.000 C 108.301 180.000,107.845 179.382,108.152 178.581 C 108.451 177.801,109.853 177.840,110.159 178.636 M91.558 194.766 C 92.319 195.248,91.810 196.400,90.836 196.400 C 89.804 196.400,89.407 195.715,90.015 194.982 C 90.572 194.310,90.791 194.280,91.558 194.766 M105.400 220.000 L 105.400 221.800 93.048 221.906 C 78.925 222.027,78.855 222.011,79.992 219.020 L 80.385 217.989 92.892 218.094 L 105.400 218.200 105.400 220.000 M101.985 228.002 C 105.905 230.194,106.853 235.332,104.276 240.417 L 103.153 242.635 104.276 244.800 C 105.940 248.006,106.108 252.754,104.634 254.918 C 103.400 256.729,103.424 256.475,104.381 257.579 C 106.018 259.466,105.930 263.224,104.211 264.854 C 102.946 266.054,102.944 266.820,104.201 268.001 C 105.907 269.603,106.268 273.693,104.785 274.609 C 103.909 275.151,104.511 276.094,106.215 276.848 C 109.406 278.260,112.408 281.560,111.841 283.036 C 111.465 284.016,107.347 283.791,106.496 282.743 C 104.033 279.711,103.188 279.323,97.000 278.375 C 91.884 277.591,90.003 276.038,90.003 272.600 C 90.003 269.718,91.401 268.032,95.541 265.919 C 100.841 263.214,101.038 259.565,95.936 258.593 C 92.548 257.947,92.455 254.400,95.826 254.400 C 98.645 254.400,99.746 253.083,99.521 249.981 C 99.311 247.069,99.281 247.040,97.373 247.837 C 92.954 249.684,88.518 246.562,88.920 241.887 C 89.260 237.938,93.448 235.723,97.428 237.386 C 99.055 238.066,99.600 237.333,99.600 234.463 C 99.600 230.915,98.073 230.402,88.246 230.650 C 79.852 230.862,78.110 230.164,79.922 227.312 C 80.770 225.979,99.408 226.561,101.985 228.002 M85.519 240.866 C 85.670 241.658,84.117 242.277,83.507 241.667 C 83.280 241.440,83.207 240.959,83.345 240.599 C 83.668 239.757,85.347 239.963,85.519 240.866 M94.229 241.429 C 93.169 242.489,93.922 244.400,95.400 244.400 C 96.100 244.400,97.200 243.300,97.200 242.600 C 97.200 241.900,96.100 240.800,95.400 240.800 C 95.101 240.800,94.574 241.083,94.229 241.429 M85.528 244.704 C 85.631 245.428,85.463 245.600,84.651 245.600 C 83.417 245.600,82.965 244.966,83.629 244.165 C 84.321 243.331,85.375 243.630,85.528 244.704 M110.271 255.440 C 110.481 255.987,109.845 256.788,109.200 256.788 C 109.090 256.788,108.749 256.629,108.442 256.434 C 107.667 255.944,108.198 254.800,109.200 254.800 C 109.654 254.800,110.136 255.088,110.271 255.440 M110.200 259.395 C 110.200 260.277,108.956 260.716,108.304 260.064 C 107.632 259.392,108.295 258.330,109.298 258.472 C 109.888 258.556,110.200 258.875,110.200 259.395 M96.263 270.422 C 94.961 271.446,94.806 273.361,95.974 273.986 C 97.253 274.671,98.295 274.460,99.178 273.337 C 100.961 271.070,98.530 268.639,96.263 270.422 M105.338 290.604 C 107.999 293.787,110.910 294.724,120.935 295.628 C 127.372 296.208,127.562 296.317,127.297 299.272 C 127.033 302.214,127.094 302.187,121.098 301.982 C 118.184 301.882,102.898 301.814,87.129 301.831 L 58.457 301.862 58.234 301.031 C 57.288 297.508,58.026 296.558,62.000 296.190 C 69.496 295.494,74.521 293.746,77.600 290.763 L 79.625 288.800 91.728 288.800 L 103.831 288.800 105.338 290.604 M66.767 316.390 C 70.348 317.418,71.077 320.299,68.400 322.846 C 66.437 324.713,66.427 324.492,68.604 327.392 C 70.455 329.858,70.867 331.200,69.774 331.200 C 68.573 331.200,67.707 330.417,65.812 327.618 C 63.265 323.856,62.400 323.792,62.400 327.367 C 62.400 330.935,60.758 332.953,59.828 330.528 C 59.527 329.746,59.573 317.335,59.879 316.538 C 60.128 315.890,64.681 315.792,66.767 316.390 M81.940 318.300 C 84.475 323.361,87.250 330.093,87.033 330.658 C 86.564 331.879,85.080 331.062,84.024 329.000 L 83.000 327.000 79.800 327.000 L 76.600 327.000 75.600 329.000 C 74.550 331.101,73.044 331.901,72.552 330.620 C 72.330 330.041,76.877 319.101,78.255 316.900 C 79.314 315.208,80.645 315.714,81.940 318.300 M100.993 317.375 C 106.256 320.459,105.663 327.111,99.861 330.071 C 97.820 331.112,91.574 331.609,90.607 330.806 C 89.799 330.135,89.703 317.270,90.500 316.438 C 91.449 315.448,98.829 316.107,100.993 317.375 M110.957 316.633 C 111.374 317.718,111.226 329.604,110.786 330.426 C 110.286 331.360,108.980 331.446,108.643 330.567 C 108.312 329.704,108.333 316.600,108.667 316.267 C 109.176 315.757,110.716 316.004,110.957 316.633 M127.715 317.198 C 132.536 320.501,131.662 328.739,126.274 330.775 C 118.527 333.701,111.700 325.401,116.411 318.784 C 118.466 315.899,124.569 315.042,127.715 317.198 M121.448 318.005 C 114.665 320.089,117.650 331.068,124.487 329.180 C 129.255 327.864,129.415 318.050,124.669 317.995 C 124.411 317.992,123.840 317.913,123.400 317.820 C 122.960 317.727,122.081 317.810,121.448 318.005 M62.667 318.267 C 62.127 318.806,62.382 322.307,62.977 322.536 C 64.500 323.120,67.200 321.610,67.200 320.174 C 67.200 318.619,63.761 317.173,62.667 318.267 M92.975 318.522 C 92.864 318.809,92.825 321.284,92.887 324.022 L 93.000 329.000 94.400 329.133 C 101.750 329.832,104.852 320.731,98.040 318.454 C 96.171 317.830,93.225 317.869,92.975 318.522 M78.583 321.500 C 77.437 324.241,77.556 324.584,79.700 324.722 C 81.899 324.863,82.080 324.415,80.957 321.608 C 80.153 319.599,79.393 319.564,78.583 321.500 M62.400 347.581 C 62.400 354.669,62.302 355.200,61.000 355.200 C 59.702 355.200,59.600 354.661,59.600 347.796 C 59.600 341.105,59.946 339.915,61.628 340.815 C 62.341 341.197,62.400 341.714,62.400 347.581 M80.383 341.525 C 82.270 342.929,82.385 344.576,80.755 346.821 C 80.393 347.319,80.551 347.689,81.552 348.690 C 84.882 352.021,81.644 355.409,75.400 355.127 L 72.600 355.000 72.490 348.202 C 72.358 340.062,72.281 340.206,76.583 340.547 C 78.410 340.692,79.715 341.027,80.383 341.525 M94.280 341.001 C 94.751 341.331,96.872 343.671,98.992 346.201 C 103.699 351.816,103.589 351.812,103.650 346.400 C 103.678 343.980,103.722 341.775,103.750 341.500 C 103.778 341.225,104.299 340.943,104.909 340.873 L 106.019 340.745 105.909 347.873 L 105.800 355.000 104.732 355.123 C 103.806 355.231,103.071 354.566,99.201 350.123 C 93.470 343.545,93.803 343.612,93.984 349.072 C 94.129 353.429,93.725 355.274,92.661 355.123 C 91.822 355.003,91.797 354.820,91.690 348.030 C 91.566 340.146,91.872 339.315,94.280 341.001 M117.851 340.706 C 118.132 340.889,118.366 342.945,118.471 346.151 L 118.640 351.301 119.926 352.451 C 123.997 356.088,127.200 353.020,127.200 345.482 C 127.200 340.659,127.612 339.648,129.081 340.867 C 130.173 341.774,129.646 351.103,128.400 352.923 C 126.067 356.330,119.142 356.323,116.904 352.910 C 115.965 351.478,115.593 341.304,116.460 340.755 C 117.119 340.337,117.276 340.331,117.851 340.706 M142.000 346.965 C 142.000 352.619,142.257 353.782,143.458 353.567 C 145.308 353.235,147.200 353.664,147.200 354.415 C 147.200 355.185,146.994 355.224,143.500 355.115 L 139.800 355.000 139.690 348.030 C 139.575 340.732,139.734 340.015,141.278 340.842 C 141.922 341.187,142.000 341.845,142.000 346.965 M173.388 341.648 C 176.993 344.118,177.556 350.097,174.485 353.315 L 173.421 354.430 174.729 355.652 C 177.061 357.832,175.262 358.812,172.566 356.830 C 171.369 355.949,170.335 355.591,168.388 355.381 C 162.617 354.759,159.765 350.927,161.216 345.744 C 162.547 340.988,169.172 338.759,173.388 341.648 M196.126 340.980 C 203.157 343.487,201.850 353.999,194.339 355.357 C 188.867 356.347,185.027 352.998,185.272 347.450 L 185.410 344.301 187.315 342.577 C 188.362 341.629,189.619 340.776,190.109 340.681 C 191.968 340.322,194.656 340.455,196.126 340.980 M220.649 340.984 C 220.777 341.316,219.789 343.168,218.356 345.284 C 216.123 348.581,215.846 349.203,215.902 350.800 C 216.015 354.035,215.679 355.200,214.632 355.200 C 213.578 355.200,213.201 354.054,213.199 350.850 C 213.198 349.257,212.866 348.501,210.800 345.400 C 208.081 341.318,207.938 340.800,209.532 340.800 C 210.503 340.800,210.881 341.170,212.179 343.390 C 214.417 347.217,214.432 347.220,216.408 344.188 C 218.611 340.807,220.138 339.653,220.649 340.984 M229.944 341.144 C 230.354 341.554,231.296 342.904,232.038 344.144 C 233.751 347.008,233.959 346.981,236.228 343.600 C 237.647 341.485,238.332 340.800,239.030 340.800 C 240.570 340.800,240.438 341.286,237.888 345.014 C 235.494 348.515,235.430 348.676,235.218 351.796 C 235.034 354.494,234.884 355.014,234.258 355.134 C 233.073 355.359,232.757 354.692,232.655 351.755 C 232.564 349.113,232.459 348.847,230.099 345.284 C 227.760 341.755,227.356 340.400,228.643 340.400 C 228.949 340.400,229.535 340.735,229.944 341.144 M251.109 348.119 L 251.000 355.000 250.000 355.000 L 249.000 355.000 248.890 348.030 C 248.775 340.723,248.933 340.015,250.488 340.847 C 251.159 341.206,251.210 341.800,251.109 348.119 M264.664 340.933 C 264.793 341.064,269.083 350.613,269.354 351.371 C 269.788 352.586,270.411 351.612,272.836 345.926 C 275.097 340.623,276.103 339.532,277.471 340.900 C 278.132 341.560,279.021 354.339,278.446 354.914 C 276.996 356.364,276.092 354.122,276.030 348.924 C 275.990 345.631,275.404 345.425,274.179 348.271 C 270.681 356.394,269.611 357.081,267.548 352.527 C 263.814 344.283,263.871 344.313,263.415 350.357 C 263.060 355.059,262.168 356.690,260.992 354.787 C 260.647 354.228,261.558 342.442,262.038 341.259 C 262.367 340.449,263.994 340.247,264.664 340.933 M166.485 342.844 C 161.745 345.205,162.859 352.935,168.014 353.461 C 175.036 354.178,176.337 343.646,169.400 342.234 C 168.581 342.068,167.655 342.261,166.485 342.844 M191.400 342.480 C 185.678 344.505,186.758 353.600,192.720 353.600 C 195.943 353.600,198.000 351.420,198.000 348.003 C 198.000 343.827,194.906 341.238,191.400 342.480 M75.067 342.667 C 74.615 343.119,74.772 345.812,75.280 346.320 C 76.697 347.737,80.068 345.634,79.156 343.903 C 78.420 342.506,75.969 341.765,75.067 342.667 M75.067 349.067 C 74.490 349.643,74.786 353.109,75.433 353.357 C 78.704 354.612,81.789 350.971,79.034 349.106 C 78.490 348.738,75.426 348.707,75.067 349.067 " stroke="none" fill="#2196f3" fill-rule="evenodd"></path><path id="path1" d="M121.642 43.009 C 109.413 46.435,103.800 59.395,103.800 84.200 C 103.800 98.831,104.938 105.529,108.692 112.983 C 115.442 126.385,132.485 127.997,141.299 116.065 C 152.669 100.675,152.240 60.642,140.571 48.037 C 136.047 43.152,128.391 41.118,121.642 43.009 M252.704 42.993 C 233.328 48.325,230.253 80.378,248.300 88.906 L 251.800 90.560 256.800 90.580 C 259.550 90.591,262.369 90.473,263.064 90.317 C 264.955 89.894,264.924 90.538,262.825 95.211 C 260.351 100.720,255.518 108.688,248.396 118.995 C 245.452 123.257,245.312 123.097,252.046 123.160 C 257.193 123.208,257.273 123.160,261.037 117.761 C 284.789 83.694,286.306 49.376,264.338 43.051 C 261.616 42.267,255.454 42.237,252.704 42.993 M297.785 42.895 C 297.676 43.178,297.635 48.628,297.694 55.005 L 297.800 66.600 301.700 66.714 L 305.600 66.829 305.600 62.243 C 305.600 56.974,305.829 56.508,308.437 56.472 C 310.572 56.442,310.880 56.104,310.726 53.954 L 310.600 52.200 308.610 52.074 C 303.936 51.779,304.285 47.341,309.000 47.115 L 311.400 47.000 311.400 44.800 L 311.400 42.600 304.691 42.490 C 299.511 42.406,297.937 42.498,297.785 42.895 M313.786 42.893 C 313.677 43.177,313.635 48.628,313.694 55.005 L 313.800 66.600 316.965 66.718 C 320.936 66.866,320.783 67.134,320.810 60.000 C 320.835 53.296,321.298 53.454,322.565 60.600 C 323.688 66.939,323.469 66.581,326.319 66.719 C 328.604 66.829,328.789 66.773,328.965 65.919 C 329.681 62.444,330.027 60.647,330.470 58.100 C 331.217 53.797,331.600 54.565,331.600 60.367 C 331.600 63.209,331.709 65.819,331.843 66.167 C 332.161 66.997,338.597 67.106,338.911 66.287 C 339.191 65.558,338.893 43.275,338.598 42.796 C 338.457 42.569,336.240 42.400,333.403 42.400 C 327.725 42.400,328.367 41.867,327.428 47.356 C 326.519 52.676,326.240 52.600,325.017 46.700 L 324.167 42.600 319.076 42.488 C 315.200 42.403,313.937 42.499,313.786 42.893 M66.940 50.500 C 62.359 54.515,57.753 58.622,56.705 59.626 L 54.800 61.453 54.800 66.703 C 54.800 69.590,54.968 72.057,55.174 72.184 C 55.528 72.403,64.194 65.310,68.676 61.134 C 69.818 60.070,70.943 59.200,71.176 59.200 C 71.471 59.200,71.600 68.743,71.600 90.571 C 71.600 118.558,71.668 122.011,72.229 122.571 C 72.909 123.252,80.111 123.499,81.092 122.875 C 81.610 122.546,81.908 44.422,81.394 43.590 C 81.261 43.376,79.829 43.200,78.211 43.200 L 75.270 43.200 66.940 50.500 M160.480 43.680 C 159.801 44.359,159.819 52.635,160.500 53.076 C 160.775 53.254,166.490 53.427,173.200 53.460 C 191.040 53.548,190.400 53.522,190.400 54.147 C 190.400 54.448,188.794 58.003,186.832 62.047 C 179.644 76.859,169.830 101.566,165.340 116.152 C 163.163 123.222,163.235 123.340,169.582 123.100 C 174.917 122.898,173.872 124.209,177.009 113.784 C 182.659 95.004,190.557 74.640,199.830 54.944 C 203.717 46.689,203.863 46.033,202.219 44.258 L 201.238 43.200 181.099 43.200 C 165.969 43.200,160.841 43.319,160.480 43.680 M130.200 52.517 C 136.583 55.773,139.764 68.306,139.051 87.400 C 138.352 106.165,134.467 114.454,126.362 114.474 C 116.419 114.499,111.501 96.640,114.445 71.200 C 116.114 56.777,122.863 48.774,130.200 52.517 M262.161 52.820 C 267.749 54.911,270.549 62.360,269.583 72.569 C 268.842 80.398,267.842 81.279,259.600 81.354 C 251.907 81.424,247.782 77.562,246.975 69.534 C 245.775 57.598,253.172 49.456,262.161 52.820 M296.975 72.520 C 296.865 72.806,296.826 75.461,296.888 78.420 L 297.000 83.800 317.155 83.904 C 331.705 83.979,337.461 83.882,337.855 83.555 C 338.582 82.951,338.640 73.200,337.920 72.480 C 337.191 71.751,297.255 71.790,296.975 72.520 M296.972 88.930 C 296.860 89.222,296.820 91.157,296.884 93.230 L 297.000 97.000 316.800 97.111 C 327.690 97.172,337.005 97.123,337.500 97.003 C 338.548 96.749,338.904 89.864,337.920 88.880 C 337.183 88.143,297.255 88.191,296.972 88.930 M297.046 101.887 C 296.911 102.022,296.800 103.455,296.800 105.070 L 296.800 108.007 317.500 107.904 L 338.200 107.800 338.320 105.265 C 338.509 101.264,340.303 101.577,317.390 101.611 C 306.336 101.627,297.182 101.752,297.046 101.887 M216.983 108.733 C 212.074 111.020,210.937 117.352,214.721 121.336 C 219.288 126.143,226.423 122.705,226.391 115.713 C 226.367 110.360,221.400 106.675,216.983 108.733 M316.200 117.981 L 297.000 118.200 297.000 119.600 L 297.000 121.000 317.155 121.104 C 337.883 121.210,338.408 121.174,338.394 119.651 C 338.375 117.637,339.434 117.717,316.200 117.981 M200.000 141.384 C 159.046 147.358,132.212 178.556,132.208 220.200 C 132.203 256.761,153.438 284.639,190.600 296.863 C 193.887 297.945,198.522 299.955,203.200 302.329 C 225.532 313.663,248.594 322.873,270.000 329.007 C 272.090 329.605,274.610 330.331,275.600 330.619 C 279.647 331.797,291.032 334.487,297.561 335.808 C 304.523 337.218,306.620 337.573,318.600 339.372 C 326.411 340.545,340.633 341.829,342.001 341.485 C 346.431 340.372,366.800 324.552,366.800 322.225 C 366.800 319.639,364.450 319.439,361.119 321.741 C 357.442 324.283,356.233 324.475,346.918 323.992 C 311.260 322.143,277.506 315.350,237.678 302.007 C 227.655 298.649,227.866 298.839,232.050 296.937 C 268.320 280.452,287.847 252.778,287.751 218.000 C 287.615 169.309,247.668 134.430,200.000 141.384 M57.758 145.827 C 57.644 146.281,57.606 147.541,57.675 148.626 L 57.800 150.599 60.000 150.861 C 61.210 151.006,64.270 151.335,66.800 151.594 C 75.492 152.481,80.392 155.190,80.399 159.110 C 80.401 160.609,81.824 160.800,92.926 160.794 C 104.364 160.787,103.974 160.855,104.990 158.693 C 106.980 154.457,111.924 152.096,121.400 150.855 L 126.600 150.174 126.723 148.030 C 126.903 144.890,129.482 145.111,92.015 145.053 L 57.965 145.000 57.758 145.827 M213.448 151.416 C 263.445 160.090,283.383 240.328,245.041 278.562 C 209.202 314.299,154.306 277.813,154.223 218.200 C 154.165 176.424,181.289 145.838,213.448 151.416 M80.161 166.556 C 80.042 166.868,80.001 167.726,80.072 168.462 L 80.200 169.800 92.800 169.800 L 105.400 169.800 105.400 168.000 L 105.400 166.200 92.890 166.094 C 82.386 166.006,80.344 166.080,80.161 166.556 M91.067 175.067 C 90.667 175.466,90.745 177.919,91.165 178.179 C 91.366 178.303,92.910 178.521,94.597 178.664 C 98.362 178.982,99.204 179.567,99.485 182.057 C 99.743 184.343,99.152 185.487,97.491 185.914 C 96.354 186.207,96.185 186.429,96.073 187.776 C 95.894 189.924,96.347 190.199,99.839 190.053 C 104.845 189.844,106.400 191.092,106.400 195.320 C 106.400 200.104,104.995 201.287,99.522 201.108 L 96.200 201.000 96.080 202.434 C 95.709 206.854,107.727 205.890,111.000 201.237 C 114.040 196.915,112.181 189.321,107.501 186.950 L 105.600 185.987 105.600 182.852 C 105.600 177.164,102.617 174.819,95.367 174.807 C 93.148 174.803,91.213 174.920,91.067 175.067 M108.152 178.581 C 107.845 179.382,108.301 180.000,109.200 180.000 C 110.121 180.000,110.484 179.483,110.159 178.636 C 109.853 177.840,108.451 177.801,108.152 178.581 M90.015 194.982 C 89.407 195.715,89.804 196.400,90.836 196.400 C 91.810 196.400,92.319 195.248,91.558 194.766 C 90.791 194.280,90.572 194.310,90.015 194.982 M79.992 219.020 C 78.855 222.011,78.925 222.027,93.048 221.906 L 105.400 221.800 105.400 220.000 L 105.400 218.200 92.892 218.094 L 80.385 217.989 79.992 219.020 M85.416 226.712 C 80.009 226.829,79.618 226.961,79.606 228.671 C 79.592 230.691,80.291 230.851,88.246 230.650 C 98.073 230.402,99.600 230.915,99.600 234.463 C 99.600 237.333,99.055 238.066,97.428 237.386 C 93.448 235.723,89.260 237.938,88.920 241.887 C 88.518 246.562,92.954 249.684,97.373 247.837 C 99.281 247.040,99.311 247.069,99.521 249.981 C 99.746 253.083,98.645 254.400,95.826 254.400 C 92.455 254.400,92.548 257.947,95.936 258.593 C 101.038 259.565,100.841 263.214,95.541 265.919 C 87.142 270.205,87.936 276.986,97.000 278.375 C 103.188 279.323,104.033 279.711,106.496 282.743 C 107.347 283.791,111.465 284.016,111.841 283.036 C 112.408 281.560,109.406 278.260,106.215 276.848 C 104.511 276.094,103.909 275.151,104.785 274.609 C 106.268 273.693,105.907 269.603,104.201 268.001 C 102.944 266.820,102.946 266.054,104.211 264.854 C 105.930 263.224,106.018 259.466,104.381 257.579 C 103.424 256.475,103.400 256.729,104.634 254.918 C 106.108 252.754,105.940 248.006,104.276 244.800 L 103.153 242.635 104.276 240.417 C 105.888 237.237,106.099 232.439,104.718 230.400 C 102.481 227.100,98.924 226.420,85.416 226.712 M83.345 240.599 C 83.207 240.959,83.280 241.440,83.507 241.667 C 84.117 242.277,85.670 241.658,85.519 240.866 C 85.347 239.963,83.668 239.757,83.345 240.599 M96.571 241.429 C 97.631 242.489,96.878 244.400,95.400 244.400 C 94.700 244.400,93.600 243.300,93.600 242.600 C 93.600 241.900,94.700 240.800,95.400 240.800 C 95.699 240.800,96.226 241.083,96.571 241.429 M83.629 244.165 C 82.965 244.966,83.417 245.600,84.651 245.600 C 85.463 245.600,85.631 245.428,85.528 244.704 C 85.375 243.630,84.321 243.331,83.629 244.165 M108.129 255.440 C 107.919 255.987,108.555 256.788,109.200 256.788 C 109.310 256.788,109.651 256.629,109.958 256.434 C 110.733 255.944,110.202 254.800,109.200 254.800 C 108.746 254.800,108.264 255.088,108.129 255.440 M108.145 258.999 C 108.007 259.359,108.079 259.839,108.304 260.064 C 108.956 260.716,110.200 260.277,110.200 259.395 C 110.200 258.377,108.509 258.051,108.145 258.999 M99.255 270.345 C 99.990 271.080,99.958 272.346,99.178 273.337 C 97.784 275.109,95.200 274.510,95.200 272.415 C 95.200 270.394,97.917 269.007,99.255 270.345 M77.600 290.763 C 74.521 293.746,69.496 295.494,62.000 296.190 C 58.026 296.558,57.288 297.508,58.234 301.031 L 58.457 301.862 87.129 301.831 C 102.898 301.814,118.184 301.882,121.098 301.982 C 127.094 302.187,127.033 302.214,127.297 299.272 C 127.562 296.317,127.372 296.208,120.935 295.628 C 110.910 294.724,107.999 293.787,105.338 290.604 L 103.831 288.800 91.728 288.800 L 79.625 288.800 77.600 290.763 M59.879 316.538 C 59.573 317.335,59.527 329.746,59.828 330.528 C 60.758 332.953,62.400 330.935,62.400 327.367 C 62.400 323.792,63.265 323.856,65.812 327.618 C 67.707 330.417,68.573 331.200,69.774 331.200 C 70.867 331.200,70.455 329.858,68.604 327.392 C 66.427 324.492,66.437 324.713,68.400 322.846 C 71.077 320.299,70.348 317.418,66.767 316.390 C 64.681 315.792,60.128 315.890,59.879 316.538 M78.255 316.900 C 76.877 319.101,72.330 330.041,72.552 330.620 C 73.044 331.901,74.550 331.101,75.600 329.000 L 76.600 327.000 79.800 327.000 L 83.000 327.000 84.024 329.000 C 85.080 331.062,86.564 331.879,87.033 330.658 C 87.250 330.093,84.475 323.361,81.940 318.300 C 80.645 315.714,79.314 315.208,78.255 316.900 M90.500 316.438 C 89.703 317.270,89.799 330.135,90.607 330.806 C 91.574 331.609,97.820 331.112,99.861 330.071 C 105.663 327.111,106.256 320.459,100.993 317.375 C 98.829 316.107,91.449 315.448,90.500 316.438 M108.667 316.267 C 108.333 316.600,108.312 329.704,108.643 330.567 C 108.980 331.446,110.286 331.360,110.786 330.426 C 111.226 329.604,111.374 317.718,110.957 316.633 C 110.716 316.004,109.176 315.757,108.667 316.267 M118.896 316.823 C 111.775 320.437,114.586 331.200,122.652 331.200 C 127.954 331.200,130.800 328.536,130.800 323.574 C 130.800 317.509,124.540 313.958,118.896 316.823 M124.669 317.995 C 125.577 318.005,127.552 320.041,128.014 321.443 C 129.957 327.330,123.326 332.017,119.073 327.764 C 115.633 324.324,118.880 316.864,123.400 317.820 C 123.840 317.913,124.411 317.992,124.669 317.995 M66.311 318.623 C 68.482 320.143,65.590 323.538,62.977 322.536 C 62.382 322.307,62.127 318.806,62.667 318.267 C 63.159 317.774,65.414 317.994,66.311 318.623 M98.040 318.454 C 104.852 320.731,101.750 329.832,94.400 329.133 L 93.000 329.000 92.887 324.022 C 92.740 317.544,93.349 316.886,98.040 318.454 M80.957 321.608 C 82.080 324.415,81.899 324.863,79.700 324.722 C 77.556 324.584,77.437 324.241,78.583 321.500 C 79.393 319.564,80.153 319.599,80.957 321.608 M60.228 341.029 C 59.712 341.545,59.600 342.752,59.600 347.796 C 59.600 354.661,59.702 355.200,61.000 355.200 C 62.302 355.200,62.400 354.669,62.400 347.581 C 62.400 340.721,61.936 339.321,60.228 341.029 M73.090 340.865 C 72.451 341.350,72.391 342.082,72.490 348.202 L 72.600 355.000 75.400 355.127 C 81.644 355.409,84.882 352.021,81.552 348.690 C 80.551 347.689,80.393 347.319,80.755 346.821 C 82.385 344.576,82.270 342.929,80.383 341.525 C 79.044 340.528,74.121 340.083,73.090 340.865 M92.090 340.736 C 91.066 341.386,91.605 354.972,92.661 355.123 C 93.725 355.274,94.129 353.429,93.984 349.072 C 93.803 343.612,93.470 343.545,99.201 350.123 C 103.071 354.566,103.806 355.231,104.732 355.123 L 105.800 355.000 105.909 347.873 L 106.019 340.745 104.909 340.873 C 104.299 340.943,103.778 341.225,103.750 341.500 C 103.722 341.775,103.678 343.980,103.650 346.400 C 103.589 351.812,103.699 351.816,98.992 346.201 C 94.275 340.572,93.417 339.893,92.090 340.736 M116.460 340.755 C 115.593 341.304,115.965 351.478,116.904 352.910 C 119.142 356.323,126.067 356.330,128.400 352.923 C 129.646 351.103,130.173 341.774,129.081 340.867 C 127.612 339.648,127.200 340.659,127.200 345.482 C 127.200 353.020,123.997 356.088,119.926 352.451 L 118.640 351.301 118.471 346.151 C 118.291 340.656,117.971 339.797,116.460 340.755 M140.069 340.758 C 139.708 340.981,139.609 342.874,139.690 348.030 L 139.800 355.000 143.500 355.115 C 146.994 355.224,147.200 355.185,147.200 354.415 C 147.200 353.664,145.308 353.235,143.458 353.567 C 142.257 353.782,142.000 352.619,142.000 346.965 C 142.000 341.012,141.622 339.798,140.069 340.758 M165.703 340.823 C 157.794 343.253,159.862 354.463,168.388 355.381 C 170.335 355.591,171.369 355.949,172.566 356.830 C 175.262 358.812,177.061 357.832,174.729 355.652 L 173.421 354.430 174.485 353.315 C 180.161 347.366,173.809 338.332,165.703 340.823 M190.109 340.681 C 189.619 340.776,188.362 341.629,187.315 342.577 L 185.410 344.301 185.272 347.450 C 184.868 356.598,197.844 358.927,200.333 350.154 C 202.132 343.811,197.263 339.299,190.109 340.681 M218.948 340.981 C 218.492 341.301,217.349 342.744,216.408 344.188 C 214.432 347.220,214.417 347.217,212.179 343.390 C 210.881 341.170,210.503 340.800,209.532 340.800 C 207.938 340.800,208.081 341.318,210.800 345.400 C 212.866 348.501,213.198 349.257,213.199 350.850 C 213.201 354.054,213.578 355.200,214.632 355.200 C 215.679 355.200,216.015 354.035,215.902 350.800 C 215.846 349.203,216.123 348.581,218.356 345.284 C 221.144 341.167,221.407 339.259,218.948 340.981 M227.861 340.984 C 227.734 341.315,228.705 343.181,230.099 345.284 C 232.459 348.847,232.564 349.113,232.655 351.755 C 232.757 354.692,233.073 355.359,234.258 355.134 C 234.884 355.014,235.034 354.494,235.218 351.796 C 235.430 348.676,235.494 348.515,237.888 345.014 C 240.438 341.286,240.570 340.800,239.030 340.800 C 238.332 340.800,237.647 341.485,236.228 343.600 C 233.959 346.981,233.751 347.008,232.038 344.144 C 229.947 340.650,228.430 339.502,227.861 340.984 M249.269 340.758 C 248.908 340.981,248.809 342.874,248.890 348.030 L 249.000 355.000 250.000 355.000 L 251.000 355.000 251.109 348.119 C 251.224 340.931,250.924 339.734,249.269 340.758 M262.038 341.259 C 261.558 342.442,260.647 354.228,260.992 354.787 C 262.168 356.690,263.060 355.059,263.415 350.357 C 263.871 344.313,263.814 344.283,267.548 352.527 C 269.611 357.081,270.681 356.394,274.179 348.271 C 275.404 345.425,275.990 345.631,276.030 348.924 C 276.092 354.122,276.996 356.364,278.446 354.914 C 279.021 354.339,278.132 341.560,277.471 340.900 C 276.103 339.532,275.097 340.623,272.836 345.926 C 270.411 351.612,269.788 352.586,269.354 351.371 C 269.083 350.613,264.793 341.064,264.664 340.933 C 263.994 340.247,262.367 340.449,262.038 341.259 M171.519 343.061 C 173.844 344.534,174.659 348.079,173.299 350.800 C 171.732 353.938,167.334 354.486,164.914 351.845 C 160.652 347.195,166.265 339.731,171.519 343.061 M195.933 343.070 C 198.994 345.011,198.454 352.006,195.155 353.156 C 190.106 354.916,186.038 350.466,188.145 345.487 C 189.447 342.410,193.103 341.276,195.933 343.070 M78.240 342.706 C 80.096 343.945,79.021 346.800,76.698 346.800 C 75.120 346.800,73.935 343.799,75.067 342.667 C 75.424 342.309,77.688 342.338,78.240 342.706 M79.034 349.106 C 81.789 350.971,78.704 354.612,75.433 353.357 C 74.786 353.109,74.490 349.643,75.067 349.067 C 75.426 348.707,78.490 348.738,79.034 349.106 " stroke="none" fill="#fff" fill-rule="evenodd"></path></g></svg>